<svg id="Icon_ionic-ios-add-circle-outline" data-name="Icon ionic-ios-add-circle-outline" xmlns="http://www.w3.org/2000/svg" width="17" height="17" viewBox="0 0 17 17">
  <path id="Path_8" data-name="Path 8" d="M18.562,14.21H15.518V11.166a.654.654,0,0,0-1.308,0V14.21H11.166a.626.626,0,0,0-.654.654.633.633,0,0,0,.654.654H14.21v3.044a.633.633,0,0,0,.654.654.651.651,0,0,0,.654-.654V15.518h3.044a.654.654,0,0,0,0-1.308Z" transform="translate(-6.364 -6.364)" fill="#fff"/>
  <path id="Path_9" data-name="Path 9" d="M11.875,4.519a7.353,7.353,0,1,1-5.2,2.154,7.307,7.307,0,0,1,5.2-2.154m0-1.144a8.5,8.5,0,1,0,8.5,8.5,8.5,8.5,0,0,0-8.5-8.5Z" transform="translate(-3.375 -3.375)" fill="#fff"/>
</svg>
