<?xml version="1.0" encoding="UTF-8"?>
<svg fill="#78838E" width="100pt" height="100pt" version="1.1" viewBox="0 0 100 100" xmlns="http://www.w3.org/2000/svg">
 <g>
  <path d="m13.777 12.742c-4.1523 0-7.5273 3.375-7.5273 7.5273 0 4.1484 3.375 7.5273 7.5273 7.5273s7.5273-3.375 7.5273-7.5273c0-4.1523-3.3789-7.5273-7.5273-7.5273z"/>
  <path d="m25.934 16.93h67.816v6.6797h-67.816z"/>
  <path d="m13.777 42.473c-4.1523 0-7.5273 3.3789-7.5273 7.5273s3.375 7.5273 7.5273 7.5273 7.5273-3.375 7.5273-7.5273-3.3789-7.5273-7.5273-7.5273z"/>
  <path d="m25.934 46.66h67.816v6.6797h-67.816z"/>
  <path d="m13.777 72.203c-4.1523 0-7.5273 3.3789-7.5273 7.5273 0 4.1484 3.375 7.5273 7.5273 7.5273s7.5273-3.375 7.5273-7.5273c0-4.1484-3.3789-7.5273-7.5273-7.5273z"/>
  <path d="m25.934 76.391h67.816v6.6797h-67.816z"/>
 </g>
</svg>
