<svg id="Group_47" data-name="Group 47" xmlns="http://www.w3.org/2000/svg" xmlns:xlink="http://www.w3.org/1999/xlink" width="72.136" height="53.667" viewBox="0 0 72.136 53.667">
  <defs>
    <clipPath id="clip-path">
      <rect id="Rectangle_45" data-name="Rectangle 45" width="72.136" height="53.667" fill="none" stroke="#78838e" stroke-width="1.5"/>
    </clipPath>
  </defs>
  <g id="Group_46" data-name="Group 46">
    <path id="Path_15" data-name="Path 15" d="M60.064,25.48q1.114-1.639,2.227-3.278Q69.242,12.011,76.2,1.822c1.068-1.561,1.942-1.7,3.53-.62.756.514,1.507,1.034,2.245,1.573,1.618,1.181,1.746,1.955.628,3.607-2.715,4.015-5.417,8.038-8.143,12.045C70.72,23.92,66.928,29.378,63.236,34.9a3.033,3.033,0,0,1-4.542.522c-3.975-3.981-7.967-7.945-11.933-11.934a1.648,1.648,0,0,1-.045-2.455q1.458-1.591,3.044-3.064a1.721,1.721,0,0,1,2.59.08q3.483,3.395,6.935,6.822a3.457,3.457,0,0,1,.457.8Z" transform="translate(-25.84 -0.28)" fill="none" stroke="#78838e" stroke-width="1.5"/>
    <path id="Path_16" data-name="Path 16" d="M63.737,69.469c0,.674.068,11.957.041,12.623H9.117V69.028H.5V88.4c1.108,2.826,3.01,3.67,5.6,3.659,20.19-.081,40.379-.044,60.569-.046.5,0,1,.017,1.5-.028a4.341,4.341,0,0,0,3.993-4.621c.082-6.015,0-12.034-.032-18.052,0-.075-.157-.151-.327-.286H64.4S63.737,69.028,63.737,69.469Z" transform="translate(-0.28 -38.615)" fill="none" stroke="#78838e" stroke-width="1.5"/>
  </g>
</svg>
