<?xml version="1.0" encoding="utf-8"?>
<!-- Generator: Adobe Illustrator 22.0.0, SVG Export Plug-In . SVG Version: 6.00 Build 0)  -->
<svg version="1.1" id="Layer_1" xmlns="http://www.w3.org/2000/svg" xmlns:xlink="http://www.w3.org/1999/xlink" x="0px" y="0px"
	 viewBox="0 0 22 22" style="enable-background:new 0 0 22 22;" xml:space="preserve">
<style type="text/css">
	.st0{fill:#FFFFFF;}
</style>
<title>Page 1</title>
<desc>Created with Sketch.</desc>
<g id="Style-Guide">
	<g id="LandExplorer-Style-Guide" transform="translate(-1027.000000, -2276.000000)">
		<path id="Page-1" class="st0" d="M1042.2,2290.2c-4.3,0.4-7.9-3.2-7.4-7.4c0.3-3.2,2.9-5.7,6.1-6.1c4.3-0.4,7.9,3.2,7.4,7.4
			C1048,2287.3,1045.4,2289.9,1042.2,2290.2 M1040.8,2276c-3.6,0.4-6.5,3.3-6.7,6.9c-0.1,2.1,0.6,4.1,1.9,5.5l-8.9,8.9
			c-0.1,0.1-0.1,0.3,0,0.5c0.1,0.1,0.4,0.1,0.5,0l8.9-8.9c1.4,1.3,3.4,2.1,5.5,1.9c3.6-0.2,6.6-3.1,6.9-6.7
			C1049.4,2279.5,1045.5,2275.6,1040.8,2276"/>
	</g>
</g>
</svg>
