<svg id="Group_33" data-name="Group 33" xmlns="http://www.w3.org/2000/svg" xmlns:xlink="http://www.w3.org/1999/xlink" width="70.667" height="64.937" viewBox="0 0 70.667 64.937">
  <defs>
    <clipPath id="clip-path">
      <rect id="Rectangle_41" data-name="Rectangle 41" width="70.667" height="64.937" fill="none" stroke="#78838e" stroke-width="1.5"/>
    </clipPath>
  </defs>
  <g id="Group_32" data-name="Group 32">
    <path id="Path_9" data-name="Path 9" d="M.5,33.156a4.527,4.527,0,0,1,4.716-2.983c5.668.114,11.339.038,17.008.038h1.6c-2.412,2.736-4.653,5.326-6.957,7.835a2.074,2.074,0,0,1-1.443.408c-2.541.038-5.083.018-7.749.018v37.1H53.157a8.63,8.63,0,0,0,.055-1.709,4.779,4.779,0,0,1,2.026-4.84c1.6-1.332,3.064-2.9,4.571-4.341.152.127.3.192.3.258.025,5.007.094,10.016.026,15.022A3.612,3.612,0,0,1,56.81,83.8c-.414.038-.832.024-1.248.024-16.8,0-33.6-.029-50.4.038A4.389,4.389,0,0,1,.5,80.818Z" transform="translate(-0.317 -19.11)" fill="none" stroke="#78838e" stroke-width="1.5"/>
    <path id="Path_10" data-name="Path 10" d="M79.946,13.936V1.109l23.311,20.6L79.993,43.129v-14.4c-12.658-1.377-22.178,3.789-27.834,17.68-1.4-5.027,2.783-17.674,7.69-23.606C65.3,16.217,72.3,14.191,79.946,13.936Z" transform="translate(-32.863 -0.702)" fill="none" stroke="#78838e" stroke-width="1.5"/>
  </g>
</svg>
