<?xml version="1.0" encoding="UTF-8"?>
<svg width="14px" height="14px" viewBox="0 0 14 14" version="1.1" xmlns="http://www.w3.org/2000/svg" xmlns:xlink="http://www.w3.org/1999/xlink">
    <!-- Generator: Sketch 49.3 (51167) - http://www.bohemiancoding.com/sketch -->
    <title>Zoom Plus</title>
    <desc>Created with Sketch.</desc>
    <defs>
        <path d="M17.25,17.25 L17.25,12 C17.25,11.5857864 17.5857864,11.25 18,11.25 C18.4142136,11.25 18.75,11.5857864 18.75,12 L18.75,17.25 L24,17.25 C24.4142136,17.25 24.75,17.5857864 24.75,18 C24.75,18.4142136 24.4142136,18.75 24,18.75 L18.75,18.75 L18.75,24 C18.75,24.4142136 18.4142136,24.75 18,24.75 C17.5857864,24.75 17.25,24.4142136 17.25,24 L17.25,18.75 L12,18.75 C11.5857864,18.75 11.25,18.4142136 11.25,18 C11.25,17.5857864 11.5857864,17.25 12,17.25 L17.25,17.25 Z" id="path-1"></path>
    </defs>
    <g id="Style-Guide" stroke="none" stroke-width="1" fill="none" fill-rule="evenodd">
        <g id="LandExplorer-Style-Guide" transform="translate(-642.000000, -3451.000000)">
            <g id="Group-10" transform="translate(631.000000, 3440.000000)">
                <g id="Zoom-Plus">
                    <use fill="#D8D8D8" fill-rule="evenodd" xlink:href="#path-1"></use>
                    <path stroke="#78838E" stroke-width="1" d="M17.75,12 L17.75,17.75 L12,17.75 C11.8619288,17.75 11.75,17.8619288 11.75,18 C11.75,18.1380712 11.8619288,18.25 12,18.25 L17.75,18.25 L17.75,24 C17.75,24.1380712 17.8619288,24.25 18,24.25 C18.1380712,24.25 18.25,24.1380712 18.25,24 L18.25,18.25 L24,18.25 C24.1380712,18.25 24.25,18.1380712 24.25,18 C24.25,17.8619288 24.1380712,17.75 24,17.75 L18.25,17.75 L18.25,12 C18.25,11.8619288 18.1380712,11.75 18,11.75 C17.8619288,11.75 17.75,11.8619288 17.75,12 Z"></path>
                </g>
            </g>
        </g>
    </g>
</svg>