<?xml version="1.0" encoding="UTF-8"?>
<svg width="14px" height="14px" viewBox="0 0 14 14" version="1.1" xmlns="http://www.w3.org/2000/svg" xmlns:xlink="http://www.w3.org/1999/xlink">
    <!-- Generator: Sketch 49.3 (51167) - http://www.bohemiancoding.com/sketch -->
    <title>Close Tools Copy 4</title>
    <desc>Created with Sketch.</desc>
    <defs></defs>
    <g id="Style-Guide" stroke="none" stroke-width="1" fill="none" fill-rule="evenodd">
        <g id="LandExplorer-Style-Guide" transform="translate(-835.000000, -3392.000000)" fill="#FFFFFF" stroke="#FFFFFF">
            <path d="M842.304066,3398.98845 L847.911337,3393.38101 C847.998559,3393.29398 847.998559,3393.15264 847.911337,3393.06542 C847.824116,3392.97819 847.682777,3392.97819 847.595741,3393.06542 L841.988284,3398.67267 L836.381012,3393.06542 C836.293791,3392.97819 836.152451,3392.97819 836.065416,3393.06542 C835.978195,3393.15264 835.978195,3393.29398 836.065416,3393.38101 L841.672688,3398.98845 L836.065416,3404.5957 C835.978195,3404.68292 835.978195,3404.82426 836.065416,3404.91129 C836.108934,3404.95499 836.166027,3404.97675 836.223121,3404.97675 C836.280215,3404.97675 836.337494,3404.95499 836.381012,3404.91129 L841.988284,3399.30404 L847.618988,3404.93454 C847.662506,3404.97824 847.719599,3405 847.776693,3405 C847.833787,3405 847.891066,3404.97824 847.934584,3404.93454 C848.021805,3404.8475 848.021805,3404.70616 847.934584,3404.61894 L842.304066,3398.98845 Z" id="Close-Tools-Copy-4"></path>
        </g>
    </g>
</svg>