<?xml version="1.0" encoding="UTF-8"?>
<svg width="52px" height="64px" viewBox="0 0 52 64" version="1.1" xmlns="http://www.w3.org/2000/svg" xmlns:xlink="http://www.w3.org/1999/xlink">
    <!-- Generator: Sketch 49.3 (51167) - http://www.bohemiancoding.com/sketch -->
    <title>Trash</title>
    <desc>Created with Sketch.</desc>
    <defs></defs>
    <g id="Trash" stroke="none" stroke-width="1" fill="none" fill-rule="evenodd">
        <g id="Page-1" fill="white">
            <path d="M51,9 L1,9 C0.447,9 0,8.553 0,8 C0,7.447 0.447,7 1,7 L51,7 C51.553,7 52,7.447 52,8 C52,8.553 51.553,9 51,9" id="Fill-1"></path>
            <path d="M26,55 C25.447,55 25,54.553 25,54 L25,17 C25,16.447 25.447,16 26,16 C26.553,16 27,16.447 27,17 L27,54 C27,54.553 26.553,55 26,55" id="Fill-3"></path>
            <path d="M17,55 C16.447,55 16,54.553 16,54 L16,17 C16,16.447 16.447,16 17,16 C17.553,16 18,16.447 18,17 L18,54 C18,54.553 17.553,55 17,55" id="Fill-5"></path>
            <path d="M35,55 C34.447,55 34,54.553 34,54 L34,17 C34,16.447 34.447,16 35,16 C35.553,16 36,16.447 36,17 L36,54 C36,54.553 35.553,55 35,55" id="Fill-7"></path>
            <path d="M45.4141,64 L6.5861,64 L4.0001,61.414 L4.0001,8 C4.0001,7.447 4.4471,7 5.0001,7 C5.5531,7 6.0001,7.447 6.0001,8 L6.0001,60.586 L7.4141,62 L44.5861,62 L46.5001,60.086 L46.5001,8 C46.5001,7.447 46.9471,7 47.5001,7 C48.0531,7 48.5001,7.447 48.5001,8 L48.5001,60.914 L45.4141,64 Z" id="Fill-9"></path>
            <path d="M34,9 C33.447,9 33,8.553 33,8 L33,3.414 L31.586,2 L20.414,2 L19,3.414 L19,8 C19,8.553 18.553,9 18,9 C17.447,9 17,8.553 17,8 L17,2.586 L19.586,0 L32.414,0 L35,2.586 L35,8 C35,8.553 34.553,9 34,9" id="Fill-11"></path>
        </g>
    </g>
</svg>