<?xml version="1.0" encoding="utf-8"?>
<!-- Generator: Adobe Illustrator 22.0.0, SVG Export Plug-In . SVG Version: 6.00 Build 0)  -->
<svg version="1.1" id="Layer_1" xmlns="http://www.w3.org/2000/svg" xmlns:xlink="http://www.w3.org/1999/xlink" x="0px" y="0px"
	 viewBox="0 0 32 32" style="enable-background:new 0 0 32 32;" xml:space="preserve">
<style type="text/css">
	.st0{fill:#FFFFFF;}
</style>
<title>Icon - Data Layers</title>
<desc>Created with Sketch.</desc>
<g id="LX-Map-Application-Home">
	<g id="Desktop-HD" transform="translate(-20.000000, -200.000000)">
		<g id="Tool-Icons" transform="translate(17.000000, 139.000000)">
			<g id="Icon---Data-Layers" transform="translate(3.000000, 61.000000)">
				<path class="st0" d="M15.5,0L0,8.3L6.3,12L0,15.3l6.9,4l-6.8,3.8L16,32l15.6-8.9l-6.9-3.6l7.3-4.2L25.6,12l6.2-3.8L15.5,0z
					 M14.6,15.6l-7.2-4.2L2.1,8.4l13.5-7.2l14.3,7.2l-5.4,3.3L17,15.7l-1.2,0.7L14.6,15.6z M17.5,16.5l7.1-4l5.3,2.8l-6.5,3.7
					l-7.7,4.3l-7.9-4.6l-5.8-3.4l5.3-2.8l6.8,3.9l1.7,1L17.5,16.5z M2.1,23.1l5.8-3.2l7.9,4.6l7.9-4.4l5.8,3.1L16,30.9L2.1,23.1z"/>
			</g>
		</g>
	</g>
</g>
</svg>
