<?xml version="1.0" encoding="UTF-8"?>
<svg width="36px" height="36px" viewBox="0 0 36 36" version="1.1" xmlns="http://www.w3.org/2000/svg" xmlns:xlink="http://www.w3.org/1999/xlink">
    <!-- Generator: Sketch 49.3 (51167) - http://www.bohemiancoding.com/sketch -->
    <title>Group 2</title>
    <desc>Created with Sketch.</desc>
    <defs></defs>
    <g id="LX-Map-Application-Home" stroke="none" stroke-width="1" fill="none" fill-rule="evenodd">
        <g id="Mobile" transform="translate(-12.000000, -18.000000)" fill="#27ae60">
            <g id="Group-2" transform="translate(12.000000, 18.000000)">
                <path d="M20.5714286,10.3932817 C20.5714286,11.2703795 19.1682701,14.6329955 18.6796052,15.7773477 C18.619761,15.9173547 18.4088104,15.9173547 18.3489662,15.7773477 C17.8603013,14.6329955 16.4571429,11.2703795 16.4571429,10.3932817 C16.4571429,9.33143052 17.3781818,8.47058824 18.5142857,8.47058824 C19.6503896,8.47058824 20.5714286,9.33143052 20.5714286,10.3932817" id="Fill-20"></path>
                <path d="M36,24.1422965 C36,22.5043367 34.6568333,21.1764706 33,21.1764706 C32.4365,21.1764706 31.911,21.3330003 31.4606667,21.6000894 C31.4581667,21.6004189 31.4556667,21.5999246 31.4533333,21.6012428 L17.8655,29.5214808 C17.8598333,29.5249409 17.8525,29.5249409 17.8468333,29.5214808 L4.70866667,21.7053762 C4.21083333,21.3821012 3.6315,21.1764706 3,21.1764706 C1.34316667,21.1764706 0,22.5043367 0,24.1422965 C0,25.2146073 0.577666667,26.1511492 1.44,26.6721459 C1.4415,26.6744527 1.455,26.682032 1.4575,26.6833502 L16.4905,35.5954922 C17.4256667,36.1323067 18.5128333,36.1374145 19.5125,35.5953274 L34.5866667,26.6599531 C34.5891667,26.6583054 34.5923333,26.6561634 34.5951667,26.6538567 C35.4341667,26.1455471 36,25.2014258 36,24.1422965" id="Fill-21"></path>
                <path d="M1.44116667,14.7530839 L16.4571667,23.9114866 C17.419,24.4995293 18.623,24.5002049 19.5855,23.9128376 L34.5488333,14.7633856 L34.547,14.7603458 C35.4166667,14.2280337 36,13.2640624 36,12.1594135 C36,10.48057 34.6568333,9.1195601 33,9.1195601 C32.4428333,9.1195601 31.9231667,9.27611255 31.476,9.54429517 L31.4745,9.54159308 L17.9791667,17.7535881 L8.862,12.2021403 L19.5223333,5.66020697 L19.5205,5.65716712 C20.4048333,5.12840151 21,4.15581731 21,3.03985337 C21,1.3610099 19.6568333,0 18,0 C17.3808333,0 16.8056667,0.190328597 16.3276667,0.516099549 L1.344,9.62434464 L1.33483333,9.63126875 C0.530166667,10.1764158 0,11.1049221 0,12.1594135 C0,13.2581516 0.577166667,14.217732 1.43916667,14.7519017" id="Fill-22"></path>
            </g>
        </g>
    </g>
</svg>