<?xml version="1.0" encoding="UTF-8"?>
<svg width="32px" height="32px" viewBox="0 0 32 32" version="1.1" xmlns="http://www.w3.org/2000/svg" xmlns:xlink="http://www.w3.org/1999/xlink">
    <!-- Generator: Sketch 49.1 (51147) - http://www.bohemiancoding.com/sketch -->
    <title>Icon - Data Layers</title>
    <desc>Created with Sketch.</desc>
    <defs></defs>
    <g id="LX-Map-Application-Home" stroke="none" stroke-width="1" fill="none" fill-rule="evenodd">
        <g id="Desktop-HD" transform="translate(-20.000000, -200.000000)" fill="#78838E">
            <g id="Tool-Icons" transform="translate(17.000000, 139.000000)">
                <g id="Icon---Data-Layers" transform="translate(3.000000, 61.000000)">
                    <path d="M15.5333231,-0.000100086324 L0.00736083423,8.33458858 L6.32786382,11.9952459 L0,15.3266192 L6.89759239,19.320564 L0.0868578439,23.122343 L16.0397485,32 L31.5980985,23.1033266 L24.737801,19.492212 L32.0004907,15.3276201 L25.6181567,11.9862381 L31.8591627,8.23600355 L15.5333231,-0.000100086324 Z M14.6034044,15.6363864 L7.36917651,11.4467728 L2.05220058,8.36761707 L15.5475541,1.12336891 L29.7981291,8.31307002 L24.3535654,11.5838911 L16.9996013,15.664911 L15.8012575,16.3299846 L14.6034044,15.6363864 Z M17.4687318,16.5441693 L24.6077595,12.5817518 L29.9281705,15.3676546 L23.4633952,19.0743516 L15.8012575,23.3265191 L7.90946174,18.7560771 L2.06005214,15.3686555 L7.347094,12.5852548 L14.1190615,16.506637 L15.791443,17.4754726 L17.4687318,16.5441693 Z M2.13316976,23.1208417 L7.90062874,19.9015651 L15.791443,24.4720071 L23.7097378,20.0772166 L29.5272504,23.1398581 L16.0338598,30.8565137 L2.13316976,23.1208417 Z"></path>
                </g>
            </g>
        </g>
    </g>
</svg>