<?xml version="1.0" encoding="UTF-8"?>
<svg width="64px" height="64px" viewBox="0 0 64 64" version="1.1" xmlns="http://www.w3.org/2000/svg" xmlns:xlink="http://www.w3.org/1999/xlink">
    <!-- Generator: Sketch 49.3 (51167) - http://www.bohemiancoding.com/sketch -->
    <title>Radius</title>
    <desc>Created with Sketch.</desc>
    <defs></defs>
    <g id="Radius" stroke="none" stroke-width="1" fill="none" fill-rule="evenodd">
        <path d="M32,28.5208748 C33.9184891,28.5208748 35.4791252,30.0815109 35.4791252,32 C35.4791252,33.9184891 33.9184891,35.4791252 32,35.4791252 C30.0815109,35.4791252 28.5208748,33.9184891 28.5208748,32 C28.5208748,30.0815109 30.0815109,28.5208748 32,28.5208748 M32,61.6302187 C15.6620278,61.6302187 2.36978131,48.3379722 2.36978131,32 C2.36978131,24.1888668 5.41451292,17.0765408 10.3717694,11.777336 L27.499006,28.9045726 C26.8906561,29.7852883 26.5328032,30.8518887 26.5328032,32 C26.5328032,35.0139165 28.9860835,37.4671968 32,37.4671968 C35.0139165,37.4671968 37.4671968,35.0139165 37.4671968,32 C37.4671968,28.9860835 35.0139165,26.5328032 32,26.5328032 C30.8518887,26.5328032 29.7852883,26.8906561 28.9045726,27.499006 L11.777336,10.3717694 C17.0775348,5.41451292 24.1878728,2.36978131 32,2.36978131 C48.3379722,2.36978131 61.6302187,15.6620278 61.6302187,32 C61.6302187,48.3379722 48.3379722,61.6302187 32,61.6302187 M32,0 C14.3548708,0 0,14.3548708 0,32 C0,49.6451292 14.3548708,64 32,64 C49.6451292,64 64,49.6451292 64,32 C64,14.3548708 49.6451292,0 32,0" id="Page-1" fill="#27ae60"></path>
    </g>
</svg>