<?xml version="1.0" encoding="UTF-8"?>
<svg fill="#78838E" width="100pt" height="100pt" version="1.1" viewBox="0 0 100 100" xmlns="http://www.w3.org/2000/svg">
 <path d="m50 8c-12.691 0-23 10.309-23 23v11h-1c-3.8242 0-7 3.1758-7 7v36c0 3.8242 3.1758 7 7 7h48c3.8242 0 7-3.1758 7-7v-36c0-3.8242-3.1758-7-7-7h-1v-11c0-12.691-10.309-23-23-23zm0 6c9.4688 0 17 7.5312 17 17v11h-34v-11c0-9.4688 7.5312-17 17-17zm-24 34h48c0.60547 0 1 0.39453 1 1v36c0 0.60547-0.39453 1-1 1h-48c-0.60547 0-1-0.39453-1-1v-36c0-0.60547 0.39453-1 1-1z"/>
</svg>
