<?xml version="1.0" encoding="utf-8"?>
<!-- Generator: Adobe Illustrator 22.0.0, SVG Export Plug-In . SVG Version: 6.00 Build 0)  -->
<svg version="1.1" id="Layer_1" xmlns="http://www.w3.org/2000/svg" xmlns:xlink="http://www.w3.org/1999/xlink" x="0px" y="0px"
	 viewBox="0 0 22 38" style="enable-background:new 0 0 22 38;" xml:space="preserve">
<style type="text/css">
	.st0{fill:#FFFFFF;}
</style>
<title>Group 11</title>
<desc>Created with Sketch.</desc>
<g id="Style-Guide">
	<g id="LandExplorer-Style-Guide" transform="translate(-467.000000, -2269.000000)">
		<g id="Group-11" transform="translate(467.000000, 2269.000000)">
			<path id="Fill-1" class="st0" d="M13.5,13.4c-3.7,0-9.7,5-12.7,7.9L0,22.1l0.7,0.8l1,1.2L2.5,25l0.9-0.8l0.1-0.1
				c1.4-1.2,2.3-2,2.9-2.4c-0.2,1.1-0.7,2.6-1.1,4.1c-0.8,3-1.7,6.1-1.7,8c0,2.5,1.6,4.1,4.1,4.1c4.8,0,9.7-4.8,12.1-7.1l0.7-0.6
				l0.9-0.8l-0.8-0.9l-1.1-1.2l-0.8-0.9l-0.8,0.8c-1.1,1.1-2.2,2-2.9,2.5c0.2-0.9,0.5-2.1,0.8-3.5c0.7-2.8,1.5-5.9,1.5-8.3
				C17.2,15.9,16.5,13.4,13.5,13.4 M13.5,14.6c2.4,0,2.6,2,2.6,3.4c0,4-2.5,10.5-2.5,12.6c0,0.3,0,0.8,0.6,0.8
				c1.1,0,3.9-2.8,4.4-3.3l1.1,1.2l-0.7,0.7c-2.3,2.2-7,6.8-11.3,6.8c-1.2,0-3-0.5-3-2.9c0-3.2,3-11,3-13.2c0-0.3,0-0.6-0.4-0.6
				c-0.9,0-3.7,2.6-4.6,3.4l-1-1.2C4.8,19,10.4,14.6,13.5,14.6"/>
			<path id="Fill-3-Copy" class="st0" d="M13.1,0C9.7,0,7,2.7,7,6.1c0,3.4,2.7,6.1,6.1,6.1c3.4,0,6.1-2.7,6.1-6.1
				C19.2,2.7,16.4,0,13.1,0 M13.1,1.2c2.7,0,4.9,2.2,4.9,4.9c0,2.7-2.2,4.9-4.9,4.9S8.2,8.8,8.2,6.1C8.2,3.4,10.4,1.2,13.1,1.2"/>
		</g>
	</g>
</g>
</svg>
