<svg id="Group_68" data-name="Group 68" xmlns="http://www.w3.org/2000/svg" xmlns:xlink="http://www.w3.org/1999/xlink" width="64.659" height="57.355" viewBox="0 0 64.659 57.355">
  <defs>
    <clipPath id="clip-path">
      <rect id="Rectangle_58" data-name="Rectangle 58" width="64.659" height="57.355" fill="#7d808d"/>
    </clipPath>
  </defs>
  <g id="Group_67" data-name="Group 67" clip-path="url(#clip-path)">
    <path id="Path_50" data-name="Path 50" d="M44.837,89.894c1.329-.5,2.292-.88,3.265-1.233,4.276-1.555,8.541-3.145,12.841-4.632a2.859,2.859,0,0,0,2.216-3.089c-.047-9.267-.017-18.534-.026-27.8,0-2.228-1.093-3.012-3.186-2.268-3.392,1.205-6.767,2.459-10.152,3.686-.557.2-1.126.372-1.821.6a1.9,1.9,0,0,1,1.36-2.095c3.393-1.208,6.754-2.5,10.143-3.723,3.087-1.11,5.175.372,5.178,3.655q.014,14.126,0,28.251c0,2.446-.557,3.229-2.915,4.1-5.345,1.98-10.708,3.915-16.032,5.951a4.742,4.742,0,0,1-3.33.007c-6.821-2.143-13.647-4.276-20.494-6.333a4.413,4.413,0,0,0-2.569.077c-4.621,1.629-9.2,3.384-13.8,5.059C2.106,91.349,0,89.871,0,86.274Q0,72.374,0,58.474c0-2.557.661-3.5,3.056-4.355q5.994-2.15,12.005-4.3c.828,1.059.372,1.512-.641,1.876C10.8,53,7.209,54.394,3.573,55.656a2.689,2.689,0,0,0-2.052,2.891c.027,9.267,0,18.534.02,27.8,0,2.354,1.065,3.091,3.276,2.292,4.61-1.666,9.2-3.387,13.82-5.028a1.662,1.662,0,0,0,1.275-1.869q-.072-6.762.013-13.524c.007-.513.473-1.02.726-1.53.259.522.736,1.041.743,1.566.06,4.507.045,9.016.029,13.524,0,.8.059,1.414,1.025,1.705C29.2,85.52,35.934,87.605,42.676,89.67c.084.026.191-.02.49-.06.037-.526.11-1.093.111-1.66q.012-9.467.005-18.934a3.8,3.8,0,0,1,.033-1.193,5.285,5.285,0,0,1,.73-1.119,4.9,4.9,0,0,1,.753,1.078,3.653,3.653,0,0,1,.037,1.192q0,9.467,0,18.934v1.987" transform="translate(0 -34.251)" fill="#7d808d"/>
    <path id="Path_51" data-name="Path 51" d="M89.882,13.089a15.5,15.5,0,0,1-2.7,8.469c-2.838,4.467-5.887,8.8-8.937,13.129-1.006,1.427-2.327,1.451-3.372.132-4.108-5.18-8.029-10.481-10.672-16.614a13.308,13.308,0,1,1,25.679-5.116M76.353,34.2a9.9,9.9,0,0,0,.893-.812c3.786-4.675,7.387-9.481,9.716-15.084a14.258,14.258,0,0,0,1.325-4.72C88.6,5.609,80.9-.086,73.135,2.061,66.88,3.79,62.592,11.443,65.7,17.406c2.024,3.89,4.268,7.672,6.568,11.407,1.142,1.854,2.633,3.492,4.09,5.389" transform="translate(-44.158 0)" fill="#7d808d"/>
    <path id="Path_52" data-name="Path 52" d="M100.559,29.634a5.222,5.222,0,0,1-5.372,5.114,5.368,5.368,0,0,1-5.13-5.4A5.235,5.235,0,0,1,95.4,24.194a5.128,5.128,0,0,1,5.157,5.44m-5.276-3.869a3.587,3.587,0,0,0-3.669,3.692,3.639,3.639,0,0,0,3.848,3.692,3.576,3.576,0,0,0,3.576-3.79,3.539,3.539,0,0,0-3.755-3.594" transform="translate(-62.98 -16.919)" fill="#7d808d"/>
  </g>
</svg>
