<?xml version="1.0" encoding="UTF-8"?>
<svg width="32px" height="32px" viewBox="0 0 32 32" version="1.1" xmlns="http://www.w3.org/2000/svg" xmlns:xlink="http://www.w3.org/1999/xlink">
    <!-- Generator: Sketch 49.1 (51147) - http://www.bohemiancoding.com/sketch -->
    <title>Icon - Save</title>
    <desc>Created with Sketch.</desc>
    <defs></defs>
    <g id="LX-Map-Application-Home" stroke="none" stroke-width="1" fill="none" fill-rule="evenodd">
        <g id="Desktop-HD" transform="translate(-19.000000, -376.000000)" fill="#78838E">
            <g id="Tool-Icons" transform="translate(17.000000, 139.000000)">
                <g id="Icon---Save" transform="translate(2.000000, 237.000000)">
                    <path d="M31,31 L25,31 L25,19.8175 C25,19.3665 24.6335,19 24.1825,19 L7.8175,19 C7.3665,19 7,19.3665 7,19.8175 L7,31 L1,31 L1,1 L10.5,1 L10.5,7.5345 C10.5,8.067 10.933,8.5 11.466,8.5 L20.534,8.5 C21.067,8.5 21.5,8.067 21.5,7.5345 L21.5,1 L24.3035,1 L31,7.218 L31,31 Z M8,31 L24,31 L24,20 L8,20 L8,31 Z M20.534,7.5 L11.5,7.5345 L11.5,1 L20.5,1 L20.534,7.5 Z M24.6965,0 L20.534,0 L11.466,0 L0,0 L0,32 L7,32 L25,32 L32,32 L32,6.782 L24.6965,0 Z"></path>
                </g>
            </g>
        </g>
    </g>
</svg>