<?xml version="1.0" encoding="UTF-8"?>
<svg width="64px" height="66px" viewBox="0 0 64 66" version="1.1" xmlns="http://www.w3.org/2000/svg" xmlns:xlink="http://www.w3.org/1999/xlink">
    <!-- Generator: Sketch 49.3 (51167) - http://www.bohemiancoding.com/sketch -->
    <title>Edit</title>
    <desc>Created with Sketch.</desc>
    <defs>
        <polygon id="path-1" points="63.718 8.0792 63.718 65 0 65 0 0.984 63.718 0.984 63.718 8.0792 56.623 8.0792 56.623 0.98395 63.71825 0.98395 63.71825 8.0792"></polygon>
        <polygon id="path-3" points="0 7 0 0 7 0 7 7"></polygon>
    </defs>
    <g id="Edit" stroke="none" stroke-width="1" fill="none" fill-rule="evenodd">
        <g id="Group">
            <g id="Page-1">
                <g id="Group-3" transform="translate(0.000000, 0.016100)">
                    <mask id="mask-2" fill="white">
                        <use xlink:href="#path-1"></use>
                    </mask>
                    <g id="Clip-2"></g>
                    <path d="M62.501,2.2012 C60.878,0.5782 58.246,0.5782 56.623,2.2012 L62.501,8.0792 C64.124,6.4562 64.124,3.8242 62.501,2.2012" id="Fill-1" fill="#27ae60" mask="url(#mask-2)"></path>
                </g>
                <polygon id="Fill-4" fill="#27ae60" points="26 39.0151 34.313 36.6401 28.375 30.7021"></polygon>
                <path d="M29.793,30.2231 C29.988,30.4181 30.244,30.5161 30.5,30.5161 C30.756,30.5161 31.012,30.4181 31.207,30.2231 L56.207,5.2231 C56.598,4.8321 56.598,4.2001 56.207,3.8091 C55.816,3.4181 55.184,3.4181 54.793,3.8091 L29.793,28.8091 C29.402,29.2001 29.402,29.8321 29.793,30.2231" id="Fill-6" fill="#27ae60"></path>
                <path d="M59.293,8.3091 L34.293,33.3091 C33.902,33.7001 33.902,34.3321 34.293,34.7231 C34.488,34.9181 34.744,35.0161 35,35.0161 C35.256,35.0161 35.512,34.9181 35.707,34.7231 L60.707,9.7231 C61.098,9.3321 61.098,8.7001 60.707,8.3091 C60.316,7.9181 59.684,7.9181 59.293,8.3091" id="Fill-8" fill="#27ae60"></path>
                <path d="M54.5,63.0161 C52.57,63.0161 51,61.4461 51,59.5161 C51,57.5861 52.57,56.0161 54.5,56.0161 C56.43,56.0161 58,57.5861 58,59.5161 C58,61.4461 56.43,63.0161 54.5,63.0161 M5.5,63.0161 C3.57,63.0161 2,61.4461 2,59.5161 C2,57.5861 3.57,56.0161 5.5,56.0161 C7.43,56.0161 9,57.5861 9,59.5161 C9,61.4461 7.43,63.0161 5.5,63.0161 M2,10.5161 C2,8.5861 3.57,7.0161 5.5,7.0161 C7.43,7.0161 9,8.5861 9,10.5161 C9,12.4461 7.43,14.0161 5.5,14.0161 C3.57,14.0161 2,12.4461 2,10.5161 M56,54.2291 L56,29.0161 C56,28.4631 55.553,28.0161 55,28.0161 C54.447,28.0161 54,28.4631 54,29.0161 L54,54.0411 C51.366,54.2811 49.264,56.3821 49.025,59.0161 L10.975,59.0161 C10.736,56.3821 8.634,54.2811 6,54.0411 L6,15.9911 C8.634,15.7511 10.736,13.6501 10.975,11.0161 L37,11.0161 C37.553,11.0161 38,10.5691 38,10.0161 C38,9.4631 37.553,9.0161 37,9.0161 L10.787,9.0161 C10.131,6.7111 8.012,5.0161 5.5,5.0161 C2.468,5.0161 0,7.4841 0,10.5161 C0,13.0281 1.695,15.1471 4,15.8031 L4,54.2291 C1.695,54.8851 0,57.0041 0,59.5161 C0,62.5481 2.468,65.0161 5.5,65.0161 C8.012,65.0161 10.131,63.3211 10.787,61.0161 L49.213,61.0161 C49.869,63.3211 51.988,65.0161 54.5,65.0161 C57.532,65.0161 60,62.5481 60,59.5161 C60,57.0041 58.305,54.8851 56,54.2291" id="Fill-10" fill="#27ae60"></path>
            </g>
            <g id="Page-1" transform="translate(57.000000, 1.000000)">
                <mask id="mask-4" fill="white">
                    <use xlink:href="#path-3"></use>
                </mask>
                <g id="Clip-2"></g>
                <path d="M5.79909094,1.20090906 C4.19787886,-0.40030302 1.60121208,-0.40030302 0,1.20090906 L5.79909094,7 C7.40030302,5.39878792 7.40030302,2.80212114 5.79909094,1.20090906" id="Fill-1" fill="#27ae60" mask="url(#mask-4)"></path>
            </g>
        </g>
    </g>
</svg>