<?xml version="1.0" encoding="utf-8"?>
<!-- Generator: Adobe Illustrator 22.0.0, SVG Export Plug-In . SVG Version: 6.00 Build 0)  -->
<svg version="1.1" id="Layer_1" xmlns="http://www.w3.org/2000/svg" xmlns:xlink="http://www.w3.org/1999/xlink" x="0px" y="0px"
	 viewBox="0 0 38 38" style="enable-background:new 0 0 38 38;" xml:space="preserve">
<style type="text/css">
	.st0{fill:#FFFFFF;}
	.st1{filter:url(#Adobe_OpacityMaskFilter);}
	.st2{mask:url(#mask-2_1_);fill:#FFFFFF;}
	.st3{filter:url(#Adobe_OpacityMaskFilter_1_);}
	.st4{mask:url(#mask-4_1_);fill:#FFFFFF;}
	.st5{filter:url(#Adobe_OpacityMaskFilter_2_);}
	.st6{mask:url(#mask-6_1_);fill:#FFFFFF;}
</style>
<title>Icon - Boudaries</title>
<desc>Created with Sketch.</desc>
<g id="LX-Map-Application-Home">
	<g id="Desktop-HD" transform="translate(-17.000000, -254.000000)">
		<g id="Tool-Icons" transform="translate(17.000000, 139.000000)">
			<g id="Icon---Boudaries" transform="translate(0.000000, 115.000000)">
				<g>
					<path id="Fill-1" class="st0" d="M18.9,27.6C17.3,24,12.4,11.3,12.4,8c0-3.7,3-6.8,6.6-6.8s6.6,3,6.6,6.8
						C25.5,11.3,20.6,24,18.9,27.6z M22.8,23.4l0.5-1.1L22.5,22c0.2-0.6,0.5-1.3,0.7-1.9c1.6-4.3,3.5-9.9,3.5-12.2
						c0-4.4-3.5-8-7.8-8s-7.8,3.6-7.8,8c0,2.3,1.9,7.9,3.5,12.2c0.3,0.7,0.5,1.4,0.8,2l-0.8,0.3l0.5,1.1l0.7-0.3
						c0.4,1.1,0.9,2.2,1.3,3.1c1.3,3.1,1.3,3.1,1.8,3.1s0.5,0,1.8-3.1c0.4-1,0.9-2.1,1.3-3.3L22.8,23.4z"/>
					<polygon id="Fill-3" class="st0" points="28.2,24.6 25.7,23.5 25.3,24.5 27.7,25.6 					"/>
					<polygon id="Fill-5" class="st0" points="33.1,26.7 30.7,25.6 30.2,26.7 32.7,27.8 					"/>
					<g id="Group-9" transform="translate(35.031250, 27.838384)">
						<g id="Clip-8">
						</g>
						<defs>
							<filter id="Adobe_OpacityMaskFilter" filterUnits="userSpaceOnUse" x="0.1" y="0" width="2.8" height="2.1">
								<feColorMatrix  type="matrix" values="1 0 0 0 0  0 1 0 0 0  0 0 1 0 0  0 0 0 1 0"/>
							</filter>
						</defs>
						<mask maskUnits="userSpaceOnUse" x="0.1" y="0" width="2.8" height="2.1" id="mask-2_1_">
							<g class="st1">
								<polygon id="path-1_1_" class="st0" points="2.8,2.1 2.8,0 0.1,0 0.1,2.1 								"/>
							</g>
						</mask>
						<polygon id="Fill-7" class="st2" points="0.6,0 0.1,1 0.1,1 0.1,1 0.1,1.1 0.1,1.1 0.6,2.1 2.8,1 						"/>
					</g>
					<polygon id="Fill-10" class="st0" points="21.6,35.2 22.1,36.2 24.4,35.2 23.9,34.1 					"/>
					<polygon id="Fill-12" class="st0" points="30.6,30.9 31.1,32 33.4,31 32.9,29.9 					"/>
					<polygon id="Fill-14" class="st0" points="26.1,33.1 26.6,34.1 28.9,33.1 28.4,32 					"/>
					<g id="Group-18" transform="translate(17.218750, 36.150884)">
						<g id="Clip-17">
						</g>
						<defs>
							<filter id="Adobe_OpacityMaskFilter_1_" filterUnits="userSpaceOnUse" x="0" y="0.1" width="2.7" height="1.7">
								<feColorMatrix  type="matrix" values="1 0 0 0 0  0 1 0 0 0  0 0 1 0 0  0 0 0 1 0"/>
							</filter>
						</defs>
						<mask maskUnits="userSpaceOnUse" x="0" y="0.1" width="2.7" height="1.7" id="mask-4_1_">
							<g class="st3">
								<polygon id="path-3_1_" class="st0" points="0,1.8 2.7,1.8 2.7,0.1 0,0.1 								"/>
							</g>
						</mask>
						<polygon id="Fill-16" class="st4" points="1.4,0.5 0.5,0.1 0,1.1 1.3,1.8 2.7,1.2 2.2,0.1 						"/>
					</g>
					<polygon id="Fill-19" class="st0" points="8.7,33.1 10.8,34.1 11.3,33.1 9.2,32 					"/>
					<polygon id="Fill-21" class="st0" points="4.4,31 6.5,32 7,31 4.9,29.9 					"/>
					<polygon id="Fill-23" class="st0" points="12.9,35.2 15.1,36.2 15.6,35.2 13.5,34.1 					"/>
					<g id="Group-27" transform="translate(0.000000, 27.838384)">
						<g id="Clip-26">
						</g>
						<defs>
							<filter id="Adobe_OpacityMaskFilter_2_" filterUnits="userSpaceOnUse" x="0" y="0" width="2.7" height="2.1">
								<feColorMatrix  type="matrix" values="1 0 0 0 0  0 1 0 0 0  0 0 1 0 0  0 0 0 1 0"/>
							</filter>
						</defs>
						<mask maskUnits="userSpaceOnUse" x="0" y="0" width="2.7" height="2.1" id="mask-6_1_">
							<g class="st5">
								<polygon id="path-5_1_" class="st0" points="0,0 0,2.1 2.7,2.1 2.7,0 								"/>
							</g>
						</mask>
						<polygon id="Fill-25" class="st6" points="2.7,1 2.3,0 0,1 2.2,2.1 2.7,1.1 2.7,1.1 2.7,1.1 2.7,1 						"/>
					</g>
					<polygon id="Fill-28" class="st0" points="4.8,26.8 5.2,27.9 7.7,26.8 7.2,25.7 					"/>
					<polygon id="Fill-30" class="st0" points="9.7,24.6 10.2,25.7 12.7,24.7 12.2,23.6 					"/>
				</g>
			</g>
		</g>
	</g>
</g>
</svg>
