<?xml version="1.0" encoding="utf-8"?>
<!-- Generator: Adobe Illustrator 22.0.0, SVG Export Plug-In . SVG Version: 6.00 Build 0)  -->
<svg version="1.1" id="Layer_1" xmlns="http://www.w3.org/2000/svg" xmlns:xlink="http://www.w3.org/1999/xlink" x="0px" y="0px"
	 viewBox="0 0 36 36" style="enable-background:new 0 0 36 36;" xml:space="preserve">
<style type="text/css">
	.st0{fill:#FFFFFF;}
</style>
<title>Icon - Share</title>
<desc>Created with Sketch.</desc>
<g id="LX-Map-Application-Home">
	<g id="Desktop-HD" transform="translate(-18.000000, -433.000000)">
		<g id="Tool-Icons" transform="translate(17.000000, 139.000000)">
			<g id="Icon---Share" transform="translate(1.000000, 294.000000)">
				<path class="st0" d="M24,25.3v-7.4c0-0.3-0.3-0.6-0.6-0.6c-10.4,0-18.9,5.1-22,12.5c1.6-10.9,11.1-19.6,22-19.6
					c0.3,0,0.6-0.3,0.6-0.6V2.1l10.7,11.6L24,25.3z M35.8,13.2l-12-13.1C23.7,0,23.4,0,23.2,0c-0.2,0.1-0.3,0.3-0.3,0.6v8.3
					C10.4,9.3,0,20.2,0,33.1c0,0.4,0,0.7,0.1,1c0,0.4,0.1,0.7,0.1,1.2c0,0,0,0.1,0,0.1c0,0,0,0.1,0,0.1c0,0,0,0.1,0.1,0.1
					c0,0,0,0.1,0.1,0.1c0,0,0.1,0,0.1,0.1c0,0,0.1,0,0.1,0.1c0,0,0.1,0,0.1,0c0,0,0.1,0,0.1,0c0,0,0,0,0,0h0c0.1,0,0.1,0,0.2,0
					c0,0,0,0,0.1,0c0,0,0.1,0,0.1-0.1c0,0,0-0.1,0.1-0.1c0,0,0.1-0.1,0.1-0.1c0,0,0-0.1,0-0.1c0,0,0-0.1,0-0.1
					c0.4-9.5,9.7-16.8,21.6-17v8.3c0,0.2,0.1,0.5,0.3,0.6c0.1,0,0.1,0,0.2,0c0.1,0,0.3-0.1,0.4-0.2l12-13.1c0.1-0.1,0.2-0.3,0.2-0.4
					S35.9,13.4,35.8,13.2z"/>
			</g>
		</g>
	</g>
</g>
</svg>
