<?xml version="1.0" encoding="UTF-8"?>
<svg fill="#78838E" width="100pt" height="100pt" version="1.1" viewBox="0 0 100 100" xmlns="http://www.w3.org/2000/svg">
 <path d="m13.094 22c-3.3203 0-6.0938 2.6836-6.0938 6v44c0 3.3164 2.7734 6 6.0938 6h73.812c3.3203 0 6.0938-2.6836 6.0938-6v-44c0-3.3164-2.7734-6-6.0938-6zm1.0312 4h71.75l-34.125 30.5c-0.85156 0.76172-2.6484 0.76172-3.5 0zm-3.125 2.5625l24.969 22.312-24.969 20.688zm78 0v43l-24.969-20.688zm-50 25.031l6.5938 5.875c2.5 2.2344 6.3125 2.2344 8.8125 0l6.5938-5.875 24.656 20.406h-71.312z"/>
</svg>
