<?xml version="1.0" encoding="utf-8"?>
<!-- Generator: Adobe Illustrator 22.0.0, SVG Export Plug-In . SVG Version: 6.00 Build 0)  -->
<svg version="1.1" id="Layer_1" xmlns="http://www.w3.org/2000/svg" xmlns:xlink="http://www.w3.org/1999/xlink" x="0px" y="0px"
	 viewBox="0 0 24 22" style="enable-background:new 0 0 24 22;" xml:space="preserve">
<style type="text/css">
	.st0{fill:#FFFFFF;}
</style>
<title>Fill 1</title>
<desc>Created with Sketch.</desc>
<g id="Style-Guide">
	<g id="LandExplorer-Style-Guide" transform="translate(-1125.000000, -2277.000000)">
		<path id="Fill-1" class="st0" d="M1148.9,2298.3l-11.3-10.3l11.2-10.3c0.2-0.2,0.2-0.4,0-0.6s-0.5-0.2-0.6,0l-11.2,10.3
			l-11.2-10.3c-0.2-0.2-0.5-0.2-0.6,0c-0.2,0.2-0.2,0.4,0,0.6l11.2,10.3l-11.2,10.3c-0.2,0.2-0.2,0.4,0,0.6c0.1,0.1,0.2,0.1,0.3,0.1
			c0.1,0,0.2,0,0.3-0.1l11.2-10.3l11.3,10.3c0.1,0.1,0.2,0.1,0.3,0.1c0.1,0,0.2,0,0.3-0.1C1149,2298.7,1149,2298.5,1148.9,2298.3"/>
	</g>
</g>
</svg>
