<svg xmlns="http://www.w3.org/2000/svg" width="11.985" height="11.988"><path data-name="Path 10" d="m9.616 5.415.265-.265-.795-.795-1.455-1.454-.794-.8-.265.265-.53.53-4.669 4.673a2.079 2.079 0 0 0-.52.877l-.83 2.822a.556.556 0 0 0 .143.555.567.567 0 0 0 .555.143l2.82-.83a2.079 2.079 0 0 0 .877-.52l4.669-4.669zM3.75 9.362l-.213.532a.988.988 0 0 1-.312.162l-1.833.539.539-1.83a.9.9 0 0 1 .162-.312l.532-.213v.75A.376.376 0 0 0 3 9.364h.75zM8.5.439l-.338.34-.53.53-.267.265.795.795 1.456 1.455.795.795.265-.265.53-.53.34-.34a1.5 1.5 0 0 0 0-2.121l-.922-.924a1.5 1.5 0 0 0-2.124 0zM7.39 4.377 4.015 7.752a.375.375 0 0 1-.53-.53L6.86 3.847a.375.375 0 0 1 .53.53z" fill="#fff" opacity=".55"/></svg>