<?xml version="1.0" encoding="utf-8"?>
<!-- Generator: Adobe Illustrator 22.0.0, SVG Export Plug-In . SVG Version: 6.00 Build 0)  -->
<svg version="1.1" id="Layer_1" xmlns="http://www.w3.org/2000/svg" xmlns:xlink="http://www.w3.org/1999/xlink" x="0px" y="0px"
	 viewBox="0 0 32 32" style="enable-background:new 0 0 32 32;" xml:space="preserve">
<style type="text/css">
	.st0{fill:#FFFFFF;}
</style>
<g id="Layer_1_1_">
	<title>Icon - Data Layers</title>
	<desc>Created with Sketch.</desc>
	<path class="st0" d="M16.4,20.4l12.5-7.9c0.5-0.3,0.5-1,0-1.4L16.4,3.5c-0.3-0.2-0.6-0.2-0.8,0L3.1,11.2c-0.5,0.3-0.5,1,0,1.4
		l12.5,7.9C15.8,20.6,16.2,20.6,16.4,20.4z"/>
	<path class="st0" d="M4.1,18.6l-1,0.6c-0.5,0.3-0.5,1,0,1.4l12.5,7.9c0.3,0.2,0.6,0.2,0.9,0L29,20.6c0.5-0.3,0.5-1,0-1.4l-1-0.6
		c-0.5-0.3-1.1-0.3-1.5,0L17,24.4c-0.4,0.2-0.9,0.2-1.2,0l-10-5.8C5.2,18.3,4.6,18.4,4.1,18.6z"/>
</g>
</svg>
