<?xml version="1.0" encoding="UTF-8"?>
<svg width="64px" height="64px" viewBox="0 0 64 64" version="1.1" xmlns="http://www.w3.org/2000/svg" xmlns:xlink="http://www.w3.org/1999/xlink">
    <!-- Generator: Sketch 49.3 (51167) - http://www.bohemiancoding.com/sketch -->
    <title>Cut</title>
    <desc>Created with Sketch.</desc>
    <defs>
        <polygon id="path-1" points="0.0002 0.978707692 43.7943113 0.978707692 43.7943113 63.9997046 0.0002 63.9997046"></polygon>
    </defs>
    <g id="Cut" stroke="none" stroke-width="1" fill="none" fill-rule="evenodd">
        <g id="Page-1">
            <g id="Group-3">
                <mask id="mask-2" fill="white">
                    <use xlink:href="#path-1"></use>
                </mask>
                <g id="Clip-2"></g>
            </g>
            <path d="M36.0762,56.8346585 C35.6772,60.0681354 32.6802,62.38592 29.3962,61.9861662 C26.1122,61.5933046 23.7642,58.6433969 24.1652,55.40992 C24.5342,52.4166892 27.1292,50.21312 30.1182,50.21312 C30.3582,50.21312 30.6002,50.2278892 30.8452,50.2574277 C32.4352,50.4484431 33.8562,51.2361354 34.8452,52.4797046 C35.8332,53.7222892 36.2702,55.2681354 36.0762,56.8346585 M8.0002,39.3784123 C4.6912,39.3784123 2.0002,36.7288123 2.0002,33.47072 C2.0002,30.2136123 4.6912,27.5630277 8.0002,27.5630277 C11.3082,27.5630277 14.0002,30.2136123 14.0002,33.47072 C14.0002,36.7288123 11.3082,39.3784123 8.0002,39.3784123 M31.0862,48.3019815 C30.6192,48.2468431 30.1592,48.2409354 29.7052,48.2655508 L43.0002,7.87072 C44.0002,4.91687385 44.0992,1.30924308 43.0482,0.978412308 L33.5052,30.2529969 L15.8592,34.9141662 C15.9482,34.4464738 16.0002,33.9640123 16.0002,33.47072 C16.0002,29.1275815 12.4112,25.5937969 8.0002,25.5937969 C3.5892,25.5937969 0.0002,29.1275815 0.0002,33.47072 C0.0002,37.8148431 3.5892,41.3476431 8.0002,41.3476431 C11.0562,41.3476431 13.7152,39.6501662 15.0612,37.1630277 L32.7782,32.4841354 L27.4932,48.6958277 C24.7052,49.6577969 22.5582,52.0957046 22.1792,55.1716431 C21.6462,59.4822892 24.7752,63.4177969 29.1552,63.9425969 C29.4812,63.9809969 29.8052,63.9997046 30.1252,63.9997046 C34.1092,63.9997046 37.5692,61.0625969 38.0622,57.0729354 C38.3202,54.9845662 37.7362,52.9217969 36.4192,51.2656738 C35.1012,49.6085662 33.2082,48.5569969 31.0862,48.3019815" id="Fill-1" fill="#78838E"></path>
            <path d="M38,32 L64,24.0940969 C63.7133207,22.9721787 61.2169896,22.5544766 58.1886866,23.6039792 L39.0094343,29.9009948 L38,32 Z" id="Fill-4" fill="#78838E"></path>
        </g>
    </g>
</svg>