<svg xmlns="http://www.w3.org/2000/svg" viewBox="0 0 94 94"><defs><style>.cls-1{fill:#78838f;}</style></defs><title>icon-close-new</title><g id="Layer_2" data-name="Layer 2"><g id="Layer_1-2" data-name="Layer 1"><line class="cls-1" x1="5" y1="5" x2="89" y2="89"/><path class="cls-1" d="M89,94a5,5,0,0,1-3.54-1.47l-84-84A5,5,0,0,1,8.54,1.46l84,84A5,5,0,0,1,89,94Z"/><line class="cls-1" x1="5" y1="5" x2="89" y2="89"/><path class="cls-1" d="M89,94a5,5,0,0,1-3.54-1.47l-84-84A5,5,0,0,1,8.54,1.46l84,84A5,5,0,0,1,89,94Z"/><line class="cls-1" x1="5" y1="89" x2="89" y2="5"/><path class="cls-1" d="M5,94a5,5,0,0,1-3.54-8.54l84-84a5,5,0,0,1,7.08,7.08l-84,84A5,5,0,0,1,5,94Z"/></g></g></svg>