<svg xmlns="http://www.w3.org/2000/svg" viewBox="0 0 15.54 29.46">
    <defs>
        <style>.cls-1{fill:#d0024e;}</style>
    </defs>
    <title>icon-marker-red</title>
    <g id="Layer_2" data-name="Layer 2">
        <g id="Layer_1-2" data-name="Layer 1">
            <g id="Tool-Icons">
                <g id="Icon---Boudaries">
                    <path id="Fill-1" class="cls-1"
                          d="M11.32,22c.24-.63.48-1.25.71-1.87,1.6-4.3,3.51-9.92,3.51-12.18A7.87,7.87,0,0,0,7.77,0,7.88,7.88,0,0,0,0,8c0,2.26,1.91,7.88,3.52,12.18l.77,2,.43,1.11c.44,1.1.87,2.16,1.26,3.11,1.28,3.06,1.35,3.06,1.79,3.06s.51,0,1.79-3.06c.42-1,.87-2.12,1.33-3.28"/>
                </g>
            </g>
        </g>
    </g>
</svg>