<?xml version="1.0" encoding="UTF-8"?>
<svg width="39px" height="64px" viewBox="0 0 39 64" version="1.1" xmlns="http://www.w3.org/2000/svg" xmlns:xlink="http://www.w3.org/1999/xlink">
    <!-- Generator: Sketch 49.3 (51167) - http://www.bohemiancoding.com/sketch -->
    <title>DropPin</title>
    <desc>Created with Sketch.</desc>
    <defs>
        <polygon id="path-1" points="39 0.241427692 39 64 0.0001 64 0.0001 0.241427692"></polygon>
    </defs>
    <g id="DropPin" stroke="none" stroke-width="1" fill="none" fill-rule="evenodd">
        <g id="Page-1">
            <g id="Group-3">
                <mask id="mask-2" fill="white">
                    <use xlink:href="#path-1"></use>
                </mask>
                <g id="Clip-2"></g>
                <path d="M19.7861,60.6702277 C19.6841,60.8523815 19.5901,61.02272 19.5001,61.1832123 C19.4101,61.02272 19.3151,60.8523815 19.2141,60.6702277 C7.7921,40.1803815 2.0001,26.1437046 2.0001,18.94912 C2.0001,9.56278154 9.6861,2.21065846 19.5001,2.21065846 C29.3131,2.21065846 37.0001,9.56278154 37.0001,18.94912 C37.0001,26.1437046 31.2081,40.1803815 19.7861,60.6702277 M19.5001,0.241427692 C8.5651,0.241427692 0.0001,8.45902769 0.0001,18.94912 C0.0001,30.2958277 13.1421,53.8714585 17.4611,61.6184123 C17.9001,62.4070892 18.2311,62.9988431 18.4231,63.3582277 C18.6361,63.7540431 19.0481,64.0001969 19.5001,64.0001969 C19.9521,64.0001969 20.3641,63.7540431 20.5771,63.3572431 C20.7681,62.9988431 21.0991,62.4070892 21.5391,61.6184123 C25.8571,53.8714585 39.0001,30.2958277 39.0001,18.94912 C39.0001,8.45902769 30.4341,0.241427692 19.5001,0.241427692" id="Fill-1" fill="#27ae60" mask="url(#mask-2)"></path>
            </g>
            <path d="M19,26.1 C14.589,26.1 11,22.69045 11,18.5 C11,14.30955 14.589,10.9 19,10.9 C23.411,10.9 27,14.30955 27,18.5 C27,22.69045 23.411,26.1 19,26.1 M19,9 C13.486,9 9,13.2617 9,18.5 C9,23.7383 13.486,28 19,28 C24.514,28 29,23.7383 29,18.5 C29,13.2617 24.514,9 19,9" id="Fill-4" fill="#27ae60"></path>
        </g>
    </g>
</svg>