<svg id="Group_66" data-name="Group 66" xmlns="http://www.w3.org/2000/svg" xmlns:xlink="http://www.w3.org/1999/xlink" width="56.938" height="50.027" viewBox="0 0 56.938 50.027">
  <defs>
    <clipPath id="clip-path">
      <rect id="Rectangle_57" data-name="Rectangle 57" width="56.938" height="50.027" fill="#7d808d"/>
    </clipPath>
  </defs>
  <g id="Group_65" data-name="Group 65" clip-path="url(#clip-path)">
    <path id="Path_48" data-name="Path 48" d="M28.483,50.024q-10.345,0-20.689,0C2.938,50.013.005,47.079,0,42.24Q0,27.952,0,13.663c0-5.285,2.717-8.09,8.037-8.169,4.067-.061,8.137.023,12.2-.046A6.545,6.545,0,0,0,22.4,4.731a2.646,2.646,0,0,0,.846-.6C26.732.612,30.994-.241,35.789.053c4.251.261,8.53.048,12.8.057,5.533.012,8.35,2.822,8.35,8.316q0,16.819,0,33.638c0,5.082-2.856,7.953-7.913,7.958q-10.27.012-20.54,0M41.461,24.241c1.824,10.246-5.167,16.469-12.324,16.822a12.741,12.741,0,0,1-8.984-2.906c-4.423-3.64-5.6-8.4-4.625-14.008-4.294,0-8.4.043-12.507-.027-1.184-.02-1.534.34-1.523,1.509.05,5.556,0,11.113.031,16.669.022,3.9,2.236,6.074,6.114,6.075q20.762,0,41.525,0c4.1,0,6.225-2.121,6.232-6.236q.014-8.186,0-16.372c0-.482-.051-.963-.083-1.528ZM55.4,14.321c0-2.183.014-4.366,0-6.549-.029-3.738-2.213-5.933-5.913-5.941-4.416-.01-8.856.292-13.241-.079A15.885,15.885,0,0,0,23.234,6.09a5.048,5.048,0,0,1-3.106,1.062c-4.214.118-8.433.045-12.65.05-3.629,0-5.866,2.139-5.945,5.766-.059,2.727.028,5.458-.033,8.186-.025,1.114.384,1.472,1.47,1.46,3.969-.043,7.939.025,11.906-.063a2.356,2.356,0,0,0,1.719-.993c5.319-9.661,19.042-9.152,23.7.075a2,2,0,0,0,1.461.919c4.117.074,8.236.019,12.353.059,1.083.01,1.331-.466,1.31-1.443-.051-2.281-.016-4.564-.017-6.846M40.212,27.764A11.54,11.54,0,0,0,28.5,16.107a11.582,11.582,0,0,0-11.786,11.6,11.748,11.748,0,1,0,23.5.057" transform="translate(0 0)" fill="#7d808d"/>
    <path id="Path_49" data-name="Path 49" d="M29.554.339c1.287,0,2.58-.07,3.857.04.41.035.779.545,1.167.838-.362.267-.72.756-1.088.764q-4.079.088-8.16-.024c-.35-.01-.686-.53-1.029-.814.365-.266.716-.735,1.1-.761,1.38-.093,2.769-.037,4.155-.037V.339" transform="translate(-17.065 -0.222)" fill="#7d808d"/>
  </g>
</svg>
