<?xml version="1.0" encoding="utf-8"?>
<!-- Generator: Adobe Illustrator 22.0.0, SVG Export Plug-In . SVG Version: 6.00 Build 0)  -->
<svg version="1.1" id="Layer_1" xmlns="http://www.w3.org/2000/svg" xmlns:xlink="http://www.w3.org/1999/xlink" x="0px" y="0px"
	 viewBox="0 0 32 32" style="enable-background:new 0 0 32 32;" xml:space="preserve">
<style type="text/css">
	.st0{fill:#FFFFFF;}
</style>
<title>Icon - Save</title>
<desc>Created with Sketch.</desc>
<g id="LX-Map-Application-Home">
	<g id="Desktop-HD" transform="translate(-19.000000, -376.000000)">
		<g id="Tool-Icons" transform="translate(17.000000, 139.000000)">
			<g id="Icon---Save" transform="translate(2.000000, 237.000000)">
				<path class="st0" d="M31,31h-6V19.8c0-0.5-0.4-0.8-0.8-0.8H7.8C7.4,19,7,19.4,7,19.8V31H1V1h9.5v6.5c0,0.5,0.4,1,1,1h9.1
					c0.5,0,1-0.4,1-1V1h2.8L31,7.2V31z M8,31h16V20H8V31z M20.5,7.5l-9,0V1h9L20.5,7.5z M24.7,0h-4.2h-9.1H0v32h7h18h7V6.8L24.7,0z"
					/>
			</g>
		</g>
	</g>
</g>
</svg>
