<?xml version="1.0" encoding="utf-8"?>
<!-- Generator: Adobe Illustrator 22.0.0, SVG Export Plug-In . SVG Version: 6.00 Build 0)  -->
<svg version="1.1" id="Layer_1" xmlns="http://www.w3.org/2000/svg" xmlns:xlink="http://www.w3.org/1999/xlink" x="0px" y="0px"
	 viewBox="0 0 36 35" style="enable-background:new 0 0 36 35;" xml:space="preserve">
<style type="text/css">
	.st0{fill:#FFFFFF;}
</style>
<title>Icon-DrawingTools</title>
<desc>Created with Sketch.</desc>
<g id="LX-Map-Application-Home">
	<g id="Desktop-HD" transform="translate(-19.000000, -139.000000)">
		<g id="Tool-Icons" transform="translate(17.000000, 139.000000)">
			<g id="Icon-DrawingTools" transform="translate(2.000000, 0.000000)">
				<g id="Group-3">
					<path id="Fill-1" class="st0" d="M34.6,1.6c-1.5-1.5-3.9-1.5-5.3,0L34.6,7C36.1,5.5,36.1,3.1,34.6,1.6"/>
					<path id="Fill-4" class="st0" d="M33,7.2L8.2,31.1c-0.2,0.2-0.2,0.6,0,0.8C8.3,31.9,8.4,32,8.6,32s0.3-0.1,0.4-0.2L33.8,7.9
						c0.2-0.2,0.2-0.6,0-0.8C33.6,6.9,33.3,6.9,33,7.2"/>
					<polygon id="Fill-6" class="st0" points="0,35 8,32.7 2.3,27 					"/>
					<path id="Fill-8" class="st0" d="M3.6,27c0.1,0,0.3-0.1,0.4-0.2L28.8,2.9c0.2-0.2,0.2-0.6,0-0.8c-0.2-0.2-0.6-0.2-0.8,0
						L3.2,26.1c-0.2,0.2-0.2,0.6,0,0.8C3.3,26.9,3.4,27,3.6,27"/>
				</g>
			</g>
		</g>
	</g>
</g>
</svg>
