<?xml version="1.0" encoding="UTF-8"?>
<svg width="16px" height="16px" viewBox="0 0 36 35" version="1.1" xmlns="http://www.w3.org/2000/svg" xmlns:xlink="http://www.w3.org/1999/xlink">
    <!-- Generator: Sketch 49.1 (51147) - http://www.bohemiancoding.com/sketch -->
    <title>Icon-DrawingTools</title>
    <desc>Created with Sketch.</desc>
    <defs></defs>
    <g id="LX-Map-Application-Home" stroke="none" stroke-width="1" fill="none" fill-rule="evenodd">
        <g id="Desktop-HD" transform="translate(-19.000000, -139.000000)" fill="#78838F">
            <g id="Tool-Icons" transform="translate(17.000000, 139.000000)">
                <g id="Icon-DrawingTools" transform="translate(2.000000, 0.000000)">
                    <g id="Group-3">
                        <path d="M34.6401692,1.62906154 C33.1685538,0.156907692 30.7815538,0.156907692 29.3099385,1.62906154 L34.6401692,6.95929231 C36.1123231,5.48767692 36.1123231,3.10067692 34.6401692,1.62906154" id="Fill-1"></path>
                        <path d="M33.0350431,7.15937413 L8.1657482,31.0722877 C7.9447506,31.2847865 7.9447506,31.6282629 8.1657482,31.8407617 C8.27596439,31.9467394 8.42065847,32 8.56535255,32 C8.71004663,32 8.85474071,31.9467394 8.9649569,31.8407617 L33.8342518,7.92784822 C34.0552494,7.71534937 34.0552494,7.37187298 33.8342518,7.15937413 C33.6132542,6.94687529 33.2560407,6.94687529 33.0350431,7.15937413" id="Fill-4"></path>
                        <polygon id="Fill-6" points="0 35 8 32.7142857 2.28571429 27"></polygon>
                        <path d="M3.56535255,27 C3.71004663,27 3.85474071,26.9467394 3.9649569,26.8407617 L28.8342518,2.92784822 C29.0552494,2.71534937 29.0552494,2.37187298 28.8342518,2.15937413 C28.6132542,1.94687529 28.2560407,1.94687529 28.0350431,2.15937413 L3.1657482,26.0722877 C2.9447506,26.2847865 2.9447506,26.6282629 3.1657482,26.8407617 C3.27596439,26.9467394 3.42065847,27 3.56535255,27" id="Fill-8"></path>
                    </g>
                </g>
            </g>
        </g>
    </g>
</svg>