<?xml version="1.0" encoding="UTF-8"?>
<svg width="24px" height="22px" viewBox="0 0 24 22" version="1.1" xmlns="http://www.w3.org/2000/svg" xmlns:xlink="http://www.w3.org/1999/xlink">
    <!-- Generator: Sketch 49.1 (51147) - http://www.bohemiancoding.com/sketch -->
    <title>Fill 1</title>
    <desc>Created with Sketch.</desc>
    <defs></defs>
    <g id="Style-Guide" stroke="none" stroke-width="1" fill="none" fill-rule="evenodd">
        <g id="LandExplorer-Style-Guide" transform="translate(-1125.000000, -2277.000000)" fill="#78838E">
            <path d="M1148.86917,2298.3014 L1137.60813,2287.97882 L1148.82267,2277.69852 C1148.99712,2277.53896 1148.99712,2277.27983 1148.82267,2277.11993 C1148.64823,2276.96002 1148.36555,2276.96002 1148.19148,2277.11993 L1136.97657,2287.39989 L1125.76202,2277.11993 C1125.58758,2276.96002 1125.3049,2276.96002 1125.13083,2277.11993 C1124.95639,2277.27983 1124.95639,2277.53896 1125.13083,2277.69852 L1136.34538,2287.97882 L1125.13083,2298.25878 C1124.95639,2298.41868 1124.95639,2298.6778 1125.13083,2298.83737 C1125.21787,2298.91749 1125.33205,2298.95738 1125.44624,2298.95738 C1125.56043,2298.95738 1125.67499,2298.91749 1125.76202,2298.83737 L1136.97657,2288.55741 L1148.23798,2298.87999 C1148.32501,2298.96011 1148.4392,2299 1148.55339,2299 C1148.66757,2299 1148.78213,2298.96011 1148.86917,2298.87999 C1149.04361,2298.72042 1149.04361,2298.4613 1148.86917,2298.3014" id="Fill-1"></path>
        </g>
    </g>
</svg>