<?xml version="1.0" encoding="UTF-8"?>
<svg width="22px" height="38px" viewBox="0 0 22 38" version="1.1" xmlns="http://www.w3.org/2000/svg" xmlns:xlink="http://www.w3.org/1999/xlink">
    <!-- Generator: Sketch 49.1 (51147) - http://www.bohemiancoding.com/sketch -->
    <title>Group 11</title>
    <desc>Created with Sketch.</desc>
    <defs></defs>
    <g id="Style-Guide" stroke="none" stroke-width="1" fill="none" fill-rule="evenodd">
        <g id="LandExplorer-Style-Guide" transform="translate(-467.000000, -2269.000000)" fill="#78838E">
            <g id="Group-11" transform="translate(467.000000, 2269.000000)">
                <path d="M13.4509811,13.4071095 C9.76285946,13.4071095 3.73937297,18.3730284 0.761913514,21.3069068 L0.000116216216,22.0576635 L0.68462973,22.8793122 L1.68641351,24.0804068 L2.4546027,25.0020014 L3.35121081,24.2047581 L3.40873784,24.153623 C4.80333243,22.9124338 5.71504865,22.1773662 6.30949459,21.7421365 C6.08287297,22.820623 5.65635946,24.3372446 5.23972432,25.8178392 C4.39541351,28.8220284 3.52204865,31.9279068 3.52204865,33.8082851 C3.52204865,36.2784608 5.13745405,37.8746905 7.63784595,37.8746905 C12.4096838,37.8746905 17.3378324,33.0650824 19.7150351,30.7419203 L20.4053595,30.1015689 L21.2717514,29.2979338 L20.4535892,28.4449068 L19.348373,27.292623 L18.5249811,26.4343662 L17.6864811,27.2769338 C16.5580216,28.4094608 15.5039405,29.3008392 14.8043189,29.7889473 C14.9571432,28.9039608 15.2860351,27.6395284 15.6282919,26.3222176 C16.3494135,23.5469743 17.1669946,20.4015824 17.1669946,17.9755689 C17.1669946,15.8912311 16.5219946,13.4071095 13.4509811,13.4071095 M13.4509811,14.5692716 C15.8049405,14.5692716 16.0048324,16.5234473 16.0048324,17.9755689 C16.0048324,21.9327311 13.5526703,28.4478122 13.5526703,30.6018797 C13.5526703,30.9017176 13.6020622,31.3526365 14.152927,31.3526365 C15.2052649,31.3526365 18.0118865,28.59715 18.509873,28.0968392 L19.6150892,29.2497041 L18.9131432,29.9005149 C16.6573865,32.1051365 11.8965892,36.7125284 7.63784595,36.7125284 C6.43849459,36.7125284 4.68421081,36.2133797 4.68421081,33.8082851 C4.68421081,30.6506905 7.63784595,22.7857581 7.63784595,20.5805554 C7.63784595,20.2807176 7.58845405,19.9791365 7.18867027,19.9791365 C6.33622432,19.9791365 3.48021081,22.5347311 2.57895405,23.3360419 L1.57717027,22.1349473 C4.78183243,18.9773527 10.3950757,14.5692716 13.4509811,14.5692716" id="Fill-1"></path>
                <path d="M13.0798514,0 C9.72759459,0 7,2.72759459 7,6.08043243 C7,9.43210811 9.72759459,12.1602838 13.0798514,12.1602838 C16.4326892,12.1602838 19.1597027,9.43210811 19.1597027,6.08043243 C19.1597027,2.72759459 16.4326892,0 13.0798514,0 M13.0798514,1.16216216 C15.7958243,1.16216216 17.9975405,3.36387838 17.9975405,6.08043243 C17.9975405,8.79640541 15.7958243,10.9981216 13.0798514,10.9981216 C10.3638784,10.9981216 8.16216216,8.79640541 8.16216216,6.08043243 C8.16216216,3.36387838 10.3638784,1.16216216 13.0798514,1.16216216" id="Fill-3-Copy"></path>
            </g>
        </g>
    </g>
</svg>