<?xml version="1.0" encoding="UTF-8"?>
<svg width="64px" height="64px" viewBox="0 0 64 64" version="1.1" xmlns="http://www.w3.org/2000/svg" xmlns:xlink="http://www.w3.org/1999/xlink">
    <!-- Generator: Sketch 49.3 (51167) - http://www.bohemiancoding.com/sketch -->
    <title>Polygon</title>
    <desc>Created with Sketch.</desc>
    <defs></defs>
    <g id="Polygon" stroke="none" stroke-width="1" fill="none" fill-rule="evenodd">
        <path d="M58.5,62 C56.57,62 55,60.43 55,58.5 C55,56.57 56.57,55 58.5,55 C60.43,55 62,56.57 62,58.5 C62,60.43 60.43,62 58.5,62 M53.262,56.828 L15.954,49.175 C15.981,48.953 16,48.729 16,48.5 C16,45.468 13.532,43 10.5,43 C10.266,43 10.036,43.02 9.81,43.048 L8.042,25.372 C9.798,24.452 11,22.615 11,20.5 C11,20.098 10.954,19.706 10.871,19.328 L38.71,8.193 C39.654,9.866 41.446,11 43.5,11 C43.745,11 43.985,10.979 44.222,10.947 L55.873,53.67 C54.643,54.342 53.696,55.472 53.262,56.828 M10.5,52 C8.57,52 7,50.43 7,48.5 C7,46.57 8.57,45 10.5,45 C12.43,45 14,46.57 14,48.5 C14,50.43 12.43,52 10.5,52 M2,20.5 C2,18.57 3.57,17 5.5,17 C7.43,17 9,18.57 9,20.5 C9,22.43 7.43,24 5.5,24 C3.57,24 2,22.43 2,20.5 M43.5,2 C45.43,2 47,3.57 47,5.5 C47,7.43 45.43,9 43.5,9 C41.57,9 40,7.43 40,5.5 C40,3.57 41.57,2 43.5,2 M58.5,53 C58.255,53 58.015,53.021 57.778,53.053 L46.127,10.33 C47.837,9.396 49,7.582 49,5.5 C49,2.468 46.532,0 43.5,0 C40.468,0 38,2.468 38,5.5 C38,5.771 38.026,6.036 38.064,6.297 L10.095,17.485 C9.11,15.99 7.419,15 5.5,15 C2.468,15 0,17.468 0,20.5 C0,23.532 2.468,26 5.5,26 C5.7,26 5.897,25.988 6.092,25.967 L7.862,43.676 C6.158,44.611 5,46.423 5,48.5 C5,51.532 7.468,54 10.5,54 C12.596,54 14.42,52.821 15.348,51.092 L53.017,58.819 C53.183,61.702 55.575,64 58.5,64 C61.532,64 64,61.532 64,58.5 C64,55.468 61.532,53 58.5,53" id="Page-1" fill="#27ae60"></path>
    </g>
</svg>