<svg id="Group_44" data-name="Group 44" xmlns="http://www.w3.org/2000/svg" xmlns:xlink="http://www.w3.org/1999/xlink" width="54.813" height="54.833" viewBox="0 0 54.813 54.833">
  <defs>
    <clipPath id="clip-path">
      <rect id="Rectangle_44" data-name="Rectangle 44" width="54.813" height="54.833" fill="none" stroke="#78838e" stroke-width="1.5"/>
    </clipPath>
  </defs>
  <g id="Group_43" data-name="Group 43" clip-path="url(#clip-path)">
    <path id="Path_13" data-name="Path 13" d="M37.427,40.878l-4.964,4.946c-.064-.061-.158-.147-.248-.237q-2.27-2.27-4.54-4.54a3.274,3.274,0,0,0-4.818.01Q15.727,48.186,8.6,55.322a3.28,3.28,0,0,0,0,4.87l4.563,4.569a3.3,3.3,0,0,0,4.95,0q2.358-2.362,4.715-4.723a4.107,4.107,0,0,0,.294-.373,13.727,13.727,0,0,0,8.123,1.875c-.13.139-.215.235-.3.325q-4,4.007-8.009,8.011a10.284,10.284,0,0,1-14.589.008Q5.915,67.47,3.505,65.033a10.316,10.316,0,0,1,.041-14.6q7.165-7.171,14.33-14.341a10.131,10.131,0,0,1,8.376-3.064,9.844,9.844,0,0,1,6.192,2.854c1.642,1.606,3.251,3.245,4.874,4.87C37.359,40.8,37.4,40.842,37.427,40.878Z" transform="translate(-0.277 -18.302)" fill="none" stroke="#78838e" stroke-width="1.5"/>
    <path id="Path_14" data-name="Path 14" d="M39.647,32.512l5.046-5.028a1.142,1.142,0,0,0,.171.319q2.222,2.242,4.457,4.471a3.289,3.289,0,0,0,4.948.016q7.1-7.106,14.2-14.214a3.293,3.293,0,0,0,0-4.874q-2.293-2.3-4.589-4.594a3.288,3.288,0,0,0-4.9,0q-2.411,2.41-4.819,4.824c-.084.085-.154.183-.241.287a13.624,13.624,0,0,0-8.092-1.862c.117-.128.191-.217.273-.3q4.014-4.021,8.033-8.038A10.052,10.052,0,0,1,61.825.506,9.613,9.613,0,0,1,68.3,3.129c1.964,1.859,3.915,3.744,5.722,5.753a10.224,10.224,0,0,1-.394,13.975Q66.332,30.2,58.988,37.5a10.284,10.284,0,0,1-14.225.129c-1.7-1.629-3.34-3.325-5.007-4.992C39.714,32.6,39.679,32.549,39.647,32.512Z" transform="translate(-21.998 -0.277)" fill="none" stroke="#78838e" stroke-width="1.5"/>
  </g>
</svg>
