<?xml version="1.0" encoding="UTF-8"?>
<svg width="36px" height="36px" viewBox="0 0 36 36" version="1.1" xmlns="http://www.w3.org/2000/svg" xmlns:xlink="http://www.w3.org/1999/xlink">
    <!-- Generator: Sketch 49.1 (51147) - http://www.bohemiancoding.com/sketch -->
    <title>Icon - Share</title>
    <desc>Created with Sketch.</desc>
    <defs></defs>
    <g id="LX-Map-Application-Home" stroke="none" stroke-width="1" fill="none" fill-rule="evenodd">
        <g id="Desktop-HD" transform="translate(-18.000000, -433.000000)" fill="#78838E">
            <g id="Tool-Icons" transform="translate(17.000000, 139.000000)">
                <g id="Icon---Share" transform="translate(1.000000, 294.000000)">
                    <path d="M23.9844375,25.2669382 L23.9844375,17.8204064 C23.9844375,17.4821501 23.733,17.2087314 23.4219375,17.2087314 C13.051125,17.2087314 4.5129375,22.3149946 1.3786875,29.7425644 C3.018375,18.8229418 12.445875,10.1463315 23.4219375,10.1463315 C23.733,10.1463315 23.9844375,9.87230109 23.9844375,9.53465647 L23.9844375,2.08751298 L34.642125,13.6775315 L23.9844375,25.2669382 Z M35.8351875,13.2450772 L23.819625,0.178475211 C23.65875,0.00414782706 23.416875,-0.0478445505 23.2065,0.0463534041 C22.996125,0.141163034 22.8594375,0.363812745 22.8594375,0.610929457 L22.8594375,8.93888499 C10.4113125,9.26062606 0,20.1979873 0,33.1177873 C0,33.5013075 0.0241875,33.8169318 0.0500625,34.1502947 C0.0781875,34.5105713 0.106875,34.8836931 0.106875,35.388325 C0.106875,35.4244138 0.1198125,35.4562209 0.126,35.4910864 C0.13275,35.5314569 0.1344375,35.5736625 0.1479375,35.6115864 C0.1614375,35.6495102 0.1845,35.6794823 0.20475,35.7131244 C0.223875,35.7455432 0.2390625,35.779797 0.26325,35.8073224 C0.2885625,35.8366828 0.320625,35.8556447 0.349875,35.8788883 C0.379125,35.9015203 0.4055625,35.9272107 0.43875,35.9431142 C0.471375,35.9590178 0.5085,35.9632995 0.5445,35.9724746 C0.577125,35.9810381 0.606375,35.9975533 0.64125,35.9993883 C0.651375,36 0.6598125,36 0.669375,36 L0.6699375,36 C0.745875,36 0.817875,35.9828731 0.8848125,35.952901 C0.9095625,35.9412792 0.928125,35.9210939 0.950625,35.9064137 C0.988875,35.881335 1.0288125,35.8587031 1.060875,35.8256726 C1.0816875,35.8036523 1.094625,35.7742919 1.1120625,35.7486016 C1.137375,35.7119011 1.1649375,35.6782589 1.1818125,35.6360534 C1.193625,35.6054696 1.195875,35.5712158 1.20375,35.538797 C1.213875,35.4990382 1.2290625,35.461726 1.2313125,35.4189087 C1.6644375,25.88473 10.920375,18.6639063 22.8594375,18.4430916 L22.8594375,26.7435218 C22.8594375,26.9906385 22.996125,27.2145115 23.2065,27.3087095 C23.27625,27.3405166 23.349375,27.3551968 23.4219375,27.3551968 C23.5681875,27.3551968 23.7121875,27.2934176 23.819625,27.175976 L35.8351875,14.1099857 C35.9409375,13.9949908 36,13.8396253 36,13.6775315 C36,13.5154376 35.9409375,13.3594604 35.8351875,13.2450772 Z"></path>
                </g>
            </g>
        </g>
    </g>
</svg>