<?xml version="1.0" encoding="UTF-8"?>
<svg width="22px" height="22px" viewBox="0 0 22 22" version="1.1" xmlns="http://www.w3.org/2000/svg" xmlns:xlink="http://www.w3.org/1999/xlink">
    <!-- Generator: Sketch 49.1 (51147) - http://www.bohemiancoding.com/sketch -->
    <title>Page 1</title>
    <desc>Created with Sketch.</desc>
    <defs></defs>
    <g id="Style-Guide" stroke="none" stroke-width="1" fill="none" fill-rule="evenodd">
        <g id="LandExplorer-Style-Guide" transform="translate(-1027.000000, -2276.000000)" fill="#78838E">
            <path d="M1042.23321,2290.22136 C1037.95085,2290.64904 1034.3653,2287.06384 1034.79367,2282.78148 C1035.11043,2279.61109 1037.67442,2277.0471 1040.84482,2276.73034 C1045.12717,2276.30197 1048.71272,2279.88752 1048.28435,2284.16988 C1047.96759,2287.34027 1045.4036,2289.90426 1042.23321,2290.22136 M1040.7865,2276.03688 C1037.19292,2276.38772 1034.32502,2279.35611 1034.08092,2282.95872 C1033.93558,2285.10096 1034.70124,2287.05856 1036.01871,2288.50433 L1027.09649,2297.42654 C1026.96784,2297.55519 1026.96784,2297.76417 1027.09649,2297.89282 C1027.2394,2298.03573 1027.47062,2298.03573 1027.61353,2297.89282 L1036.51072,2288.99599 C1037.95614,2290.31381 1039.91375,2291.07911 1042.05598,2290.93377 C1045.6586,2290.68968 1048.62699,2287.82213 1048.97783,2284.22821 C1049.43924,2279.50806 1045.50665,2275.57547 1040.7865,2276.03688" id="Page-1"></path>
        </g>
    </g>
</svg>