<?xml version="1.0" encoding="UTF-8"?>
<svg width="38px" height="38px" viewBox="0 0 38 38" version="1.1" xmlns="http://www.w3.org/2000/svg" xmlns:xlink="http://www.w3.org/1999/xlink">
    <!-- Generator: Sketch 49.1 (51147) - http://www.bohemiancoding.com/sketch -->
    <title>Icon - Boudaries</title>
    <desc>Created with Sketch.</desc>
    <defs>
        <polygon id="path-1" points="2.84821875 2.06915938 2.84821875 0.001721875 0.093040625 0.001721875 0.093040625 2.06915937 2.84821875 2.06915937"></polygon>
        <polygon id="path-3" points="0.0168625 1.78125 2.6721125 1.78125 2.6721125 0.066678125 0.0168625 0.066678125 0.0168625 1.78125"></polygon>
        <polygon id="path-5" points="8.046813e-21 0.011815625 8.046813e-21 2.08222188 2.74781562 2.08222188 2.74781562 0.011815625 0 0.011815625"></polygon>
    </defs>
    <g id="LX-Map-Application-Home" stroke="none" stroke-width="1" fill="none" fill-rule="evenodd">
        <g id="Desktop-HD" transform="translate(-17.000000, -254.000000)">
            <g id="Tool-Icons" transform="translate(17.000000, 139.000000)">
                <g id="Icon---Boudaries" transform="translate(0.000000, 115.000000)">
                    <g>
                        <path d="M18.9362313,27.5821219 C17.3111375,23.9804344 12.3515438,11.2718094 12.3515438,7.95571562 C12.3515438,4.22340312 15.30545,1.18755937 18.9362313,1.18755937 C22.5670125,1.18755937 25.5209188,4.22340312 25.5209188,7.95571562 C25.5209188,11.2718094 20.561325,23.9804344 18.9362313,27.5821219 Z M22.79145,23.4436844 L23.273575,22.3583094 L22.4827,22.0068094 C22.7231688,21.3827781 22.9606688,20.7563719 23.1898563,20.1424344 C24.7947625,15.8353719 26.7084188,10.2244344 26.7084188,7.95571562 C26.7084188,3.56909062 23.2219188,5.9375e-05 18.9362313,5.9375e-05 C14.6505438,5.9375e-05 11.1640438,3.56909062 11.1640438,7.95571562 C11.1640438,10.2244344 13.0777,15.8353719 14.6826063,20.1424344 C14.9331688,20.8139656 15.193825,21.4991531 15.45745,22.1813719 L14.6796375,22.5162469 L15.1487,23.6075594 L15.8885125,23.2893094 C16.3201688,24.3883406 16.7500438,25.4511531 17.1454813,26.3987781 C18.4244188,29.4583719 18.4927,29.4583719 18.9362313,29.4583719 C19.3797625,29.4583719 19.4480438,29.4583719 20.7269813,26.3987781 C21.1432,25.4018719 21.5974188,24.2761219 22.0522313,23.1153406 L22.79145,23.4436844 Z" id="Fill-1" fill="#78838E"></path>
                        <polygon id="Fill-3" fill="#78838F" points="28.2074594 24.551325 25.7404281 23.4546687 25.2583031 24.5400437 27.7253344 25.6367"></polygon>
                        <polygon id="Fill-5" fill="#78838F" points="33.1412844 26.7436281 30.6742531 25.6469719 30.1921281 26.7323469 32.6591594 27.8290031"></polygon>
                        <g id="Group-9" transform="translate(35.031250, 27.838384)">
                            <mask id="mask-2" fill="white">
                                <use xlink:href="#path-1"></use>
                            </mask>
                            <g id="Clip-8"></g>
                            <polygon id="Fill-7" fill="#78838F" mask="url(#mask-2)" points="0.576353125 0.001721875 0.146478125 0.969534375 0.093040625 0.994471875 0.115009375 1.04078438 0.094228125 1.08709687 0.147665625 1.11084688 0.598915625 2.06915938 2.84863437 1.01050313"></polygon>
                        </g>
                        <polygon id="Fill-10" fill="#78838F" points="21.6344687 35.1738688 22.13975 36.24915 24.3876875 35.1916813 23.883 34.1169938"></polygon>
                        <polygon id="Fill-12" fill="#78838F" points="30.628 30.9463094 31.1332813 32.0215906 33.3812188 30.9641219 32.8765313 29.8894344"></polygon>
                        <polygon id="Fill-14" fill="#78838F" points="26.1311156 33.0603562 26.6363969 34.1356375 28.8843344 33.0781687 28.3796469 32.0034812"></polygon>
                        <g id="Group-18" transform="translate(17.218750, 36.150884)">
                            <mask id="mask-4" fill="white">
                                <use xlink:href="#path-3"></use>
                            </mask>
                            <g id="Clip-17"></g>
                            <polygon id="Fill-16" fill="#78838F" mask="url(#mask-4)" points="1.350425 0.463896875 0.53995625 0.066678125 0.0168625 1.13245938 1.33914375 1.78142812 2.6721125 1.15502187 2.16683125 0.080334375"></polygon>
                        </g>
                        <polygon id="Fill-19" fill="#78838F" points="8.65835938 33.0760312 10.8029844 34.1275625 11.3260781 33.062375 9.18145313 32.01025"></polygon>
                        <polygon id="Fill-21" fill="#78838F" points="4.36964375 30.972375 6.51426875 32.0239063 7.0373625 30.9587188 4.8927375 29.9065938"></polygon>
                        <polygon id="Fill-23" fill="#78838F" points="12.9471344 35.1796875 15.0917594 36.2312188 15.6148531 35.1660313 13.4702281 34.1139063"></polygon>
                        <g id="Group-27" transform="translate(0.000000, 27.838384)">
                            <mask id="mask-6" fill="white">
                                <use xlink:href="#path-5"></use>
                            </mask>
                            <g id="Clip-26"></g>
                            <polygon id="Fill-25" fill="#78838F" mask="url(#mask-6)" points="2.69853437 0.992096875 2.27697188 0.011815625 -5.9375e-05 0.990909375 2.22531562 2.08222188 2.69497188 1.12509687 2.74603438 1.10312812 2.72703438 1.05859687 2.74781563 1.01644062"></polygon>
                        </g>
                        <polygon id="Fill-28" fill="#78838F" points="4.75754063 26.7831125 5.22660313 27.874425 7.70729063 26.8074563 7.23822813 25.7161438"></polygon>
                        <polygon id="Fill-30" fill="#78838F" points="9.71861875 24.6492937 10.1876813 25.7406062 12.6683688 24.6742312 12.1993063 23.5829187"></polygon>
                    </g>
                </g>
            </g>
        </g>
    </g>
</svg>