<?xml version="1.0" encoding="utf-8"?>
<!-- Generator: Adobe Illustrator 22.0.0, SVG Export Plug-In . SVG Version: 6.00 Build 0)  -->
<svg version="1.1" id="Layer_1" xmlns="http://www.w3.org/2000/svg" xmlns:xlink="http://www.w3.org/1999/xlink" x="0px" y="0px"
	 viewBox="0 0 32 13" style="enable-background:new 0 0 32 13;" xml:space="preserve">
<style type="text/css">
	.st0{fill:#FFFFFF;}
</style>
<title>Group 2</title>
<desc>Created with Sketch.</desc>
<g id="Style-Guide">
	<g id="LandExplorer-Style-Guide" transform="translate(-930.000000, -2282.000000)">
		<g id="Group-2" transform="translate(930.000000, 2282.000000)">
			<path id="Fill-1" class="st0" d="M31.5,1h-31C0.2,1,0,0.8,0,0.5S0.2,0,0.5,0h31C31.8,0,32,0.2,32,0.5S31.8,1,31.5,1"/>
			<path id="Fill-3" class="st0" d="M31.5,7h-31C0.2,7,0,6.8,0,6.5S0.2,6,0.5,6h31C31.8,6,32,6.2,32,6.5S31.8,7,31.5,7"/>
			<path id="Fill-5" class="st0" d="M31.5,13h-31C0.2,13,0,12.8,0,12.5S0.2,12,0.5,12h31c0.3,0,0.5,0.2,0.5,0.5S31.8,13,31.5,13"/>
		</g>
	</g>
</g>
</svg>
