<?xml version="1.0" encoding="UTF-8"?>
<svg width="18px" height="18px" viewBox="0 0 18 18" version="1.1" xmlns="http://www.w3.org/2000/svg" xmlns:xlink="http://www.w3.org/1999/xlink">
    <!-- Generator: Sketch 49.3 (51167) - http://www.bohemiancoding.com/sketch -->
    <title>Zoom Plus</title>
    <desc>Created with Sketch.</desc>
    <defs>
        <path d="M23,24 L23,17 C23,16.4477153 23.4477153,16 24,16 C24.5522847,16 25,16.4477153 25,17 L25,24 L32,24 C32.5522847,24 33,24.4477153 33,25 C33,25.5522847 32.5522847,26 32,26 L25,26 L25,33 C25,33.5522847 24.5522847,34 24,34 C23.4477153,34 23,33.5522847 23,33 L23,26 L16,26 C15.4477153,26 15,25.5522847 15,25 C15,24.4477153 15.4477153,24 16,24 L23,24 Z" id="path-1"></path>
    </defs>
    <g id="Style-Guide" stroke="none" stroke-width="1" fill="none" fill-rule="evenodd">
        <g id="LandExplorer-Style-Guide" transform="translate(-183.000000, -3738.000000)">
            <g id="Location-/-Zoom-Tools" transform="translate(168.000000, 3657.000000)">
                <g id="Zoom-Tool" transform="translate(0.000000, 65.000000)">
                    <g id="Zoom-Plus">
                        <use fill="#D8D8D8" fill-rule="evenodd" xlink:href="#path-1"></use>
                        <path stroke="#78838E" stroke-width="1" d="M23.5,17 L23.5,24.5 L16,24.5 C15.7238576,24.5 15.5,24.7238576 15.5,25 C15.5,25.2761424 15.7238576,25.5 16,25.5 L23.5,25.5 L23.5,33 C23.5,33.2761424 23.7238576,33.5 24,33.5 C24.2761424,33.5 24.5,33.2761424 24.5,33 L24.5,25.5 L32,25.5 C32.2761424,25.5 32.5,25.2761424 32.5,25 C32.5,24.7238576 32.2761424,24.5 32,24.5 L24.5,24.5 L24.5,17 C24.5,16.7238576 24.2761424,16.5 24,16.5 C23.7238576,16.5 23.5,16.7238576 23.5,17 Z"></path>
                    </g>
                </g>
            </g>
        </g>
    </g>
</svg>