<?xml version="1.0" encoding="UTF-8"?>
<svg width="263px" height="48px" viewBox="0 0 263 48" version="1.1" xmlns="http://www.w3.org/2000/svg" xmlns:xlink="http://www.w3.org/1999/xlink">
    <!-- Generator: Sketch 49.1 (51147) - http://www.bohemiancoding.com/sketch -->
    <title>Page 1</title>
    <desc>Created with Sketch.</desc>
    <defs>
        <polygon id="path-1" points="0 47.6097561 262.840227 47.6097561 262.840227 0.00749412827 0 0.00749412827"></polygon>
    </defs>
    <g id="Style-Guide" stroke="none" stroke-width="1" fill="none" fill-rule="evenodd">
        <g id="LandExplorer-Style-Guide" transform="translate(-247.000000, -1064.000000)">
            <g id="Page-1" transform="translate(247.000000, 1064.000000)">
                <polygon id="Fill-1" fill="#27ae60" points="65.3743982 13 65.3743982 31.2687988 74 31.2687988 74 36 60 36 60 13"></polygon>
                <g id="Group-23">
                    <path d="M87.7848194,27.1243801 C87.7848194,24.8263277 86.4930511,22.9278887 83.9761411,22.9278887 C81.6247019,22.9278887 80.1674627,24.6929763 80.1674627,27.1243801 C80.1674627,29.5560043 81.6247019,31.3543747 83.9761411,31.3543747 C86.4930511,31.3543747 87.7848194,29.4561561 87.7848194,27.1243801 Z M74.7818802,27.1243801 C74.7818802,22.328138 77.7294527,18.6646114 82.3659236,18.6646114 C84.6842686,18.6646114 86.5059819,19.7636033 87.3668686,21.3955599 L87.3668686,19.0975075 L92.4009077,19.0975075 L92.4009077,35.1514732 L87.3668686,35.1514732 L87.3668686,32.8867035 C86.5059819,34.4853774 84.5187977,35.5843693 82.2997352,35.5843693 C77.5306686,35.5843693 74.7818802,31.9541254 74.7818802,27.1243801 Z" id="Fill-2" fill="#27ae60"></path>
                    <path d="M101.562031,19.0973973 L101.562031,21.4289528 C102.489325,19.6301416 104.310819,18.6645012 106.728446,18.6645012 C110.603532,18.6645012 112.557403,20.8627053 112.557403,25.2260513 L112.557403,35.1515834 L107.457176,35.1515834 L107.457176,26.8912907 C107.457176,24.1936249 106.695352,22.9610612 104.64198,22.9610612 C102.621701,22.9610612 101.562031,24.2934732 101.562031,26.7579393 L101.562031,35.1515834 L96.4948973,35.1515834 L96.4948973,19.0973973 L101.562031,19.0973973 Z" id="Fill-4" fill="#27ae60"></path>
                    <path d="M127.891136,27.1243801 C127.891136,24.8263277 126.599368,22.9278887 124.082677,22.9278887 C121.731238,22.9278887 120.273779,24.6929763 120.273779,27.1243801 C120.273779,29.5560043 121.731238,31.3543747 124.082677,31.3543747 C126.599368,31.3543747 127.891136,29.4561561 127.891136,27.1243801 M115.107363,27.1243801 C115.107363,22.328138 118.054936,18.6646114 122.691626,18.6646114 C125.009971,18.6646114 126.831465,19.7636033 127.692352,21.3955599 L127.692352,11.8363584 L132.726391,11.8363584 L132.726391,35.1514732 L127.692352,35.1514732 L127.692352,32.8867035 C126.831465,34.4853774 124.844281,35.5843693 122.625438,35.5843693 C117.856152,35.5843693 115.107363,31.9541254 115.107363,27.1243801" id="Fill-6" fill="#27ae60"></path>
                    <polygon id="Fill-8" fill="#27ae60" points="150.831837 11.8363805 150.831837 16.1664437 142.022214 16.1664437 142.022214 21.4621474 150.831837 21.4621474 150.831837 25.692142 142.022214 25.692142 142.022214 30.8216524 150.831837 30.8216524 150.831837 35.1514952 136.657014 35.1514952 136.657014 11.8363805"></polygon>
                    <polygon id="Fill-10" fill="#27ae60" points="152.742685 19.0973973 158.803301 19.0973973 161.552089 23.760288 164.334191 19.0973973 170.394807 19.0973973 164.665352 27.0577044 170.494089 35.1515834 164.433693 35.1515834 161.552089 30.3553413 158.704019 35.1515834 152.643403 35.1515834 158.47214 27.0577044"></polygon>
                    <path d="M184.966826,27.1243801 C184.966826,24.6596936 183.410304,22.9278887 181.191242,22.9278887 C178.90621,22.9278887 177.349469,24.6264108 177.349469,27.1243801 C177.349469,29.6558526 178.939304,31.3543747 181.191242,31.3543747 C183.410304,31.3543747 184.966826,29.6225698 184.966826,27.1243801 Z M177.581348,19.0975075 L177.581348,21.3955599 C178.409359,19.8636719 180.396324,18.6646114 182.780858,18.6646114 C187.152794,18.6646114 190.133242,22.0618761 190.133242,27.1243801 C190.133242,32.1538219 187.053293,35.5843693 182.648481,35.5843693 C180.297042,35.5843693 178.376265,34.3853088 177.581348,32.8867035 L177.581348,41.8128715 L172.514434,41.8128715 L172.514434,19.0975075 L177.581348,19.0975075 Z" id="Fill-12" fill="#27ae60"></path>
                    <mask id="mask-2" fill="white">
                        <use xlink:href="#path-1"></use>
                    </mask>
                    <g id="Clip-15"></g>
                    <polygon id="Fill-14" fill="#27ae60" mask="url(#mask-2)" points="192.629747 35.1516495 197.696881 35.1516495 197.696881 11.8365348 192.629747 11.8365348"></polygon>
                    <path d="M212.964294,27.1243801 C212.964294,24.6929763 211.540149,22.9278887 209.155615,22.9278887 C206.737988,22.9278887 205.346937,24.6929763 205.346937,27.1243801 C205.346937,29.5560043 206.737988,31.321092 209.155615,31.321092 C211.540149,31.321092 212.964294,29.5560043 212.964294,27.1243801 M200.279804,27.1243801 C200.279804,22.2282898 203.65782,18.6311082 209.155615,18.6311082 C214.620317,18.6311082 217.998333,22.2282898 217.998333,27.1243801 C217.998333,32.0206909 214.620317,35.6511552 209.155615,35.6511552 C203.65782,35.6511552 200.279804,32.0206909 200.279804,27.1243801" id="Fill-16" fill="#27ae60" mask="url(#mask-2)"></path>
                    <path d="M225.648565,19.0973973 L225.648565,22.4613792 C226.211385,20.0632582 228.099286,18.8311353 230.053376,18.8311353 C230.64929,18.8311353 230.98067,18.8641977 231.37802,18.9642663 L231.37802,23.6937225 C230.781886,23.627157 230.48382,23.5938743 229.854373,23.5938743 C227.370557,23.5938743 225.648565,25.0929203 225.648565,28.9563639 L225.648565,35.1515834 L220.581431,35.1515834 L220.581431,19.0973973 L225.648565,19.0973973 Z" id="Fill-17" fill="#27ae60" mask="url(#mask-2)"></path>
                    <path d="M241.081405,22.0285713 C238.895655,22.0285713 237.570793,23.3940455 237.537699,25.3592705 L244.45942,25.3592705 C244.426545,23.2276318 243.23406,22.0285713 241.081405,22.0285713 M249.327989,28.5233355 L237.537699,28.5233355 C237.636981,30.6216914 239.028032,31.8207519 241.27997,31.8207519 C242.83671,31.8207519 243.830193,31.3210699 244.260855,30.3219263 L249.228706,30.3219263 C248.731636,33.4859913 245.51931,35.6511332 241.27997,35.6511332 C235.8488,35.6511332 232.50366,32.4870681 232.50366,27.1243581 C232.50366,21.8621575 235.914989,18.6310862 241.114499,18.6310862 C246.08213,18.6310862 249.460365,21.7620889 249.460365,26.2918486 C249.460365,27.1576408 249.427271,27.5907574 249.327989,28.5233355" id="Fill-18" fill="#27ae60" mask="url(#mask-2)"></path>
                    <path d="M257.110751,19.0973973 L257.110751,22.4613792 C257.67379,20.0632582 259.561691,18.8311353 261.515562,18.8311353 C262.111476,18.8311353 262.442856,18.8641977 262.840425,18.9642663 L262.840425,23.6937225 C262.244072,23.627157 261.946006,23.5938743 261.316778,23.5938743 C258.832743,23.5938743 257.110751,25.0929203 257.110751,28.9563639 L257.110751,35.1515834 L252.043617,35.1515834 L252.043617,19.0973973 L257.110751,19.0973973 Z" id="Fill-19" fill="#27ae60" mask="url(#mask-2)"></path>
                    <path d="M26.0808333,13.4527978 C26.0808333,14.558843 24.4364258,18.7991971 23.8637433,20.2422576 C23.79361,20.4188105 23.54639,20.4188105 23.4762567,20.2422576 C22.9035742,18.7991971 21.2591667,14.558843 21.2591667,13.4527978 C21.2591667,12.1137734 22.3385625,11.0282269 23.67,11.0282269 C25.0014375,11.0282269 26.0808333,12.1137734 26.0808333,13.4527978" id="Fill-20" fill="#27ae60" mask="url(#mask-2)"></path>
                    <path d="M47.34,31.7472874 C47.34,29.5561366 45.5737358,27.7798078 43.395,27.7798078 C42.6539975,27.7798078 41.962965,27.9892025 41.3707767,28.3464961 C41.3674892,28.3469369 41.3642017,28.3462757 41.3611333,28.348039 L23.4931325,38.9431935 C23.4856808,38.9478222 23.4760375,38.9478222 23.4685858,38.9431935 L6.19189667,28.4873416 C5.53724583,28.0548864 4.7754225,27.7798078 3.945,27.7798078 C1.76626417,27.7798078 0,29.5561366 0,31.7472874 C0,33.1817518 0.759631667,34.4345937 1.8936,35.1315476 C1.8955725,35.1346334 1.913325,35.1447725 1.9166125,35.1465359 L21.6850075,47.0685919 C22.9147517,47.7867057 24.3443758,47.7935386 25.6589375,47.0683715 L45.4814667,35.1152369 C45.4847542,35.1130327 45.4889183,35.1101673 45.4926442,35.1070815 C46.5959292,34.4270995 47.34,33.1641185 47.34,31.7472874" id="Fill-21" fill="#27ae60" mask="url(#mask-2)"></path>
                    <path d="M1.89513417,19.2625106 L21.6411742,31.2156452 C22.905985,31.9831321 24.489245,31.9840137 25.7549325,31.2174085 L45.4317158,19.2759559 L45.429305,19.2719884 C46.5729167,18.5772387 47.34,17.3191068 47.34,15.8773687 C47.34,13.6862179 45.5737358,11.9098891 43.395,11.9098891 C42.6623258,11.9098891 41.9789642,12.1142143 41.39094,12.4642341 L41.3889675,12.4607075 L23.6426042,23.1786334 L11.65353,15.9331339 L25.6718683,7.3948972 L25.6694575,7.39092972 C26.8323558,6.70080867 27.615,5.43143559 27.615,3.97492972 C27.615,1.78377886 25.8487358,0.00745004517 23.67,0.00745004517 C22.8557958,0.00745004517 22.0994517,0.255858356 21.4708817,0.681039928 L1.76736,12.5687111 L1.75530583,12.5777481 C0.697169167,13.2892495 0,14.5010941 0,15.8773687 C0,17.3113922 0.758974167,18.5637933 1.89250417,19.2609677" id="Fill-22" fill="#27ae60" mask="url(#mask-2)"></path>
                </g>
            </g>
        </g>
    </g>
</svg>