<svg xmlns="http://www.w3.org/2000/svg" xmlns:xlink="http://www.w3.org/1999/xlink" version="1.1" viewBox="0 0.01 48 47.6">    <!-- Generator: Sketch 49.1 (51147) - http://www.bohemiancoding.com/sketch -->    <title>Page 1</title>    <desc>Created with Sketch.</desc>    <defs>        <polygon id="path-1" points="0 47.6097561 48 47.6097561 48 0.00749412827 0 0.00749412827"></polygon>    </defs>    <g id="Style-Guide" stroke="none" stroke-width="1" fill="none" fill-rule="evenodd">        <g id="LandExplorer-Style-Guide" transform="translate(-247.000000, -1064.000000)">            <g id="Page-1" transform="translate(247.000000, 1064.000000)">                <g id="Group-23">                   <mask id="mask-2" fill="white">                        <use xlink:href="#path-1"></use>                    </mask>                    <g id="Clip-15"></g>                    <path d="M26.0808333,13.4527978 C26.0808333,14.558843 24.4364258,18.7991971 23.8637433,20.2422576 C23.79361,20.4188105 23.54639,20.4188105 23.4762567,20.2422576 C22.9035742,18.7991971 21.2591667,14.558843 21.2591667,13.4527978 C21.2591667,12.1137734 22.3385625,11.0282269 23.67,11.0282269 C25.0014375,11.0282269 26.0808333,12.1137734 26.0808333,13.4527978" id="Fill-20" fill="#27ae60" mask="url(#mask-2)"></path>                    <path d="M47.34,31.7472874 C47.34,29.5561366 45.5737358,27.7798078 43.395,27.7798078 C42.6539975,27.7798078 41.962965,27.9892025 41.3707767,28.3464961 C41.3674892,28.3469369 41.3642017,28.3462757 41.3611333,28.348039 L23.4931325,38.9431935 C23.4856808,38.9478222 23.4760375,38.9478222 23.4685858,38.9431935 L6.19189667,28.4873416 C5.53724583,28.0548864 4.7754225,27.7798078 3.945,27.7798078 C1.76626417,27.7798078 0,29.5561366 0,31.7472874 C0,33.1817518 0.759631667,34.4345937 1.8936,35.1315476 C1.8955725,35.1346334 1.913325,35.1447725 1.9166125,35.1465359 L21.6850075,47.0685919 C22.9147517,47.7867057 24.3443758,47.7935386 25.6589375,47.0683715 L45.4814667,35.1152369 C45.4847542,35.1130327 45.4889183,35.1101673 45.4926442,35.1070815 C46.5959292,34.4270995 47.34,33.1641185 47.34,31.7472874" id="Fill-21" fill="#27ae60" mask="url(#mask-2)"></path>                    <path d="M1.89513417,19.2625106 L21.6411742,31.2156452 C22.905985,31.9831321 24.489245,31.9840137 25.7549325,31.2174085 L45.4317158,19.2759559 L45.429305,19.2719884 C46.5729167,18.5772387 47.34,17.3191068 47.34,15.8773687 C47.34,13.6862179 45.5737358,11.9098891 43.395,11.9098891 C42.6623258,11.9098891 41.9789642,12.1142143 41.39094,12.4642341 L41.3889675,12.4607075 L23.6426042,23.1786334 L11.65353,15.9331339 L25.6718683,7.3948972 L25.6694575,7.39092972 C26.8323558,6.70080867 27.615,5.43143559 27.615,3.97492972 C27.615,1.78377886 25.8487358,0.00745004517 23.67,0.00745004517 C22.8557958,0.00745004517 22.0994517,0.255858356 21.4708817,0.681039928 L1.76736,12.5687111 L1.75530583,12.5777481 C0.697169167,13.2892495 0,14.5010941 0,15.8773687 C0,17.3113922 0.758974167,18.5637933 1.89250417,19.2609677" id="Fill-22" fill="#27ae60" mask="url(#mask-2)"></path>                </g>            </g>        </g>    </g></svg>
